<svg class="fhm-map" viewBox="0 0 1000 708" xmlns="http://www.w3.org/2000/svg" aria-label="Harta judetelor Romaniei">
<path class="fhm-jud" data-slug="alba" data-name="Alba" d="M390.2,276.3L395.7,279.5L399.2,276.9L399.5,282.9L394.7,286.9L395.5,288.3L401.2,292.5L409.6,293.4L411.5,294.8L411.4,299.7L412.7,300.4L413.0,302.2L414.4,303.4L416.3,301.8L422.2,308.0L416.0,310.7L416.9,312.3L415.8,315.6L416.4,317.8L417.9,318.0L418.8,320.1L411.9,324.2L408.9,324.0L405.3,327.1L403.6,330.6L398.7,335.3L398.7,340.4L396.6,342.3L394.8,342.0L392.4,339.6L384.3,338.1L379.9,343.0L381.1,348.3L376.4,356.5L369.3,356.6L367.2,358.5L367.2,360.5L371.8,362.9L369.1,365.8L367.3,370.4L363.4,371.4L363.5,374.0L356.3,374.1L355.8,377.8L359.7,380.8L358.3,383.5L356.4,382.4L355.2,383.6L355.4,385.2L352.3,390.1L354.1,392.5L352.5,394.0L358.2,399.6L356.9,402.6L358.6,406.6L355.6,409.4L355.7,412.6L357.4,414.2L360.3,422.0L364.4,421.5L361.4,426.0L355.1,427.6L353.2,425.2L352.9,422.2L350.5,417.8L346.7,413.4L344.8,413.2L342.6,408.8L335.3,407.5L334.2,403.7L335.0,402.2L333.5,400.7L331.0,402.3L329.1,401.6L328.8,399.6L334.2,394.5L328.2,388.1L330.2,381.5L326.7,377.1L324.1,369.5L325.0,363.7L322.8,361.1L323.0,359.5L325.2,358.7L324.1,356.8L321.5,357.2L318.0,354.9L314.7,346.4L314.7,340.7L312.0,339.3L309.4,340.6L304.1,339.2L298.7,334.0L300.2,332.6L298.8,329.1L296.7,328.1L297.0,326.3L295.7,323.4L300.2,323.5L300.9,321.9L299.5,319.5L300.0,317.0L295.2,312.2L287.9,311.6L284.3,304.2L286.0,301.7L283.8,299.2L282.8,295.0L276.4,293.3L269.9,295.2L266.3,291.5L258.1,288.9L255.6,282.9L260.1,279.1L256.8,277.5L257.3,275.7L255.1,270.7L255.9,269.7L255.6,265.1L257.1,265.7L260.9,261.5L266.3,261.3L268.3,258.4L269.9,258.1L269.9,259.8L276.9,263.0L281.6,260.5L289.8,261.2L291.1,268.0L295.8,269.7L294.8,273.2L299.0,273.7L301.3,269.8L309.5,267.1L310.6,269.7L315.0,270.0L326.2,263.6L331.4,262.5L345.3,270.7L347.5,268.2L349.1,270.4L350.7,269.0L353.1,270.6L353.8,273.2L352.3,276.3L352.6,278.3L353.9,281.6L357.0,283.4L359.7,284.0L361.8,282.5L359.4,281.3L358.8,279.6L361.1,279.3L361.6,276.3L364.2,275.0L367.3,276.0L376.1,273.7L379.2,274.2L380.5,276.1L386.3,274.2L387.7,276.3L390.2,276.3Z"></path>
<path class="fhm-jud" data-slug="arad" data-name="Arad" d="M255.6,282.9L258.1,288.9L263.2,291.3L255.6,296.3L256.2,297.6L253.3,305.6L254.1,306.9L253.5,309.0L251.3,310.4L250.2,309.5L248.1,311.5L245.8,309.2L238.3,310.5L235.4,308.8L230.3,313.1L233.4,322.2L231.1,327.1L227.7,328.3L226.8,330.2L229.3,332.8L229.9,337.4L229.2,339.7L230.6,340.6L230.2,343.1L219.7,346.0L219.9,348.0L221.2,348.9L218.1,349.1L215.9,355.2L211.4,354.8L209.7,359.6L207.4,359.5L205.4,356.8L197.3,355.9L197.2,354.5L190.9,350.8L183.7,349.7L182.6,346.6L180.5,345.7L175.4,347.9L175.0,350.4L172.6,352.0L170.5,351.3L168.1,352.8L165.1,350.5L162.6,356.2L159.4,357.4L160.1,352.8L156.6,348.1L154.5,348.3L151.3,357.5L148.7,359.1L148.6,355.9L146.7,352.8L144.7,353.2L145.9,348.8L133.5,343.2L134.8,339.8L132.6,334.4L130.6,334.3L124.1,338.2L125.6,340.3L116.9,346.2L108.1,341.7L105.7,345.6L103.1,346.7L103.0,349.1L96.1,344.9L89.6,348.3L85.8,342.9L85.2,338.7L71.7,339.1L68.4,333.7L66.1,332.0L60.1,330.9L57.1,328.4L56.5,326.3L54.8,325.8L53.9,323.0L49.1,322.7L46.7,320.3L49.0,313.2L52.7,313.6L51.3,306.6L54.1,302.7L64.5,301.0L66.3,303.4L69.7,304.9L70.0,302.7L72.3,302.2L72.9,304.4L76.9,305.2L80.6,304.2L81.8,307.0L84.9,307.8L88.8,304.8L90.1,298.8L97.0,298.5L96.6,293.6L99.1,291.8L99.8,283.3L101.8,281.8L107.1,282.8L111.6,276.1L109.3,272.2L107.0,272.2L105.5,268.3L107.6,261.7L111.9,256.0L109.8,254.8L111.2,250.7L112.9,248.5L116.6,247.6L121.3,250.0L122.0,246.9L126.2,243.1L135.0,248.8L135.8,253.1L138.0,253.3L137.6,247.5L139.0,245.7L142.6,246.7L146.5,243.5L163.7,244.8L170.0,241.0L174.3,244.1L171.3,248.6L178.3,250.3L184.0,249.6L186.9,246.5L192.3,247.7L193.3,248.3L193.3,250.6L195.3,251.0L196.2,252.9L202.5,253.7L201.3,257.6L202.5,263.0L204.9,266.5L212.8,268.5L217.2,266.3L218.6,268.4L218.1,271.1L219.8,272.2L223.0,279.6L227.5,282.5L228.8,284.8L231.9,286.1L244.6,284.2L252.7,285.1L255.6,282.9Z"></path>
<path class="fhm-jud" data-slug="arges" data-name="Argeș" d="M535.9,439.1L536.2,444.6L534.6,446.0L535.3,448.0L534.1,452.6L531.6,455.8L532.9,461.8L530.3,464.6L528.0,465.0L528.8,469.3L526.0,471.7L523.8,472.3L519.3,465.5L517.3,466.9L518.0,473.3L517.3,477.2L520.5,480.8L520.8,483.4L519.7,484.9L516.9,484.3L515.0,487.2L517.5,489.3L517.4,491.3L520.0,491.0L522.7,494.3L522.5,498.6L520.5,498.8L519.7,501.4L519.5,509.0L522.7,511.9L522.3,516.9L523.4,519.4L521.8,523.4L524.4,530.4L522.1,537.4L521.1,537.2L522.0,541.2L527.0,543.7L522.6,548.0L519.6,548.7L523.5,553.2L522.2,555.1L523.0,557.0L524.4,555.9L528.6,563.9L530.9,563.1L533.3,564.8L529.1,571.6L531.5,577.2L530.4,579.1L531.2,580.5L526.7,584.9L523.3,580.0L508.7,589.0L502.9,586.9L497.7,591.7L489.5,591.3L489.1,589.5L479.1,588.9L475.8,589.9L474.7,585.1L475.8,583.3L475.8,578.7L473.6,578.7L473.7,574.6L472.9,574.5L474.5,567.6L473.1,565.2L473.0,562.4L471.1,560.8L471.4,555.1L468.8,542.5L471.7,540.1L468.2,537.1L462.7,537.9L460.1,534.7L458.5,535.3L458.2,528.0L457.0,527.8L454.8,522.9L453.1,513.8L451.4,513.3L449.8,517.6L449.9,520.5L446.7,524.3L443.3,525.5L440.5,523.5L444.9,518.2L446.7,512.5L444.9,511.8L445.0,510.2L448.8,505.5L446.6,502.7L449.5,497.1L447.0,495.1L450.7,490.9L450.1,488.8L446.8,487.9L449.5,484.3L448.0,480.3L450.1,480.7L450.8,476.2L448.8,473.1L450.2,471.9L450.2,468.4L447.5,467.3L448.5,465.5L445.9,464.9L445.4,461.9L447.1,458.0L446.6,456.3L447.9,454.9L446.8,451.1L448.0,449.2L447.0,446.6L447.7,442.6L448.9,441.9L448.2,439.4L449.4,438.8L446.6,430.5L447.3,426.7L450.5,426.1L451.4,424.7L451.8,421.5L450.3,419.3L453.1,415.5L450.2,410.0L450.2,407.7L451.6,408.8L454.5,407.6L455.8,408.9L459.0,406.3L464.1,405.1L467.1,406.5L468.4,405.1L477.7,404.0L479.8,405.4L483.7,404.7L484.4,407.0L493.0,406.6L495.6,408.5L497.3,406.9L512.7,408.0L521.8,417.5L524.2,416.9L526.0,418.3L527.4,421.9L527.0,424.7L529.2,428.4L528.9,432.4L530.7,435.1L533.7,432.7L534.4,437.8L535.9,439.1Z"></path>
<path class="fhm-jud" data-slug="bacau" data-name="Bacău" d="M735.6,227.5L738.8,230.9L739.1,232.7L748.3,238.4L744.7,241.7L747.6,245.2L743.0,249.5L748.5,255.6L752.7,263.5L758.2,279.1L761.3,283.8L764.1,294.4L762.1,295.9L762.8,299.6L764.9,301.9L763.5,304.0L764.5,311.2L767.4,311.3L767.6,315.4L766.0,320.5L764.7,319.5L762.4,320.8L761.2,316.7L755.4,315.2L753.9,315.9L753.5,320.7L750.8,321.5L750.8,319.1L749.1,319.1L747.4,313.9L741.6,314.3L742.3,316.9L739.1,317.6L738.7,315.9L737.2,315.6L735.0,317.4L732.6,317.3L727.6,321.9L727.4,323.7L728.5,324.8L726.6,329.3L725.0,327.6L724.6,331.2L721.6,331.5L712.7,327.6L708.8,328.7L708.6,331.7L706.6,334.9L700.7,332.3L693.3,334.8L691.0,331.3L682.4,330.4L678.5,331.2L672.2,337.9L669.9,338.6L668.4,342.2L662.4,340.7L659.8,337.9L656.1,339.6L654.4,338.8L653.2,332.8L647.3,328.4L646.7,326.8L648.5,325.7L648.7,322.9L644.1,323.8L644.6,320.1L642.8,316.8L643.9,314.2L642.4,309.7L635.6,307.2L634.6,302.5L637.3,299.2L638.8,293.9L636.5,292.2L632.8,293.7L631.7,296.3L629.9,297.3L624.3,296.8L623.6,295.0L625.1,291.8L625.2,286.1L619.4,283.7L614.3,283.7L614.3,282.0L611.3,281.2L609.9,282.5L607.5,280.7L608.0,279.7L606.5,277.8L608.2,277.1L609.8,269.7L614.1,269.5L615.6,271.0L616.5,266.7L615.6,264.7L611.5,261.9L611.3,257.8L606.8,250.9L608.6,248.0L608.4,244.1L605.4,239.9L607.1,238.3L609.1,239.0L612.1,236.0L614.9,236.3L616.2,244.5L617.9,246.0L623.4,244.6L624.6,247.0L630.7,244.8L630.9,241.2L635.9,237.6L635.7,239.2L637.9,241.1L639.7,245.2L643.7,244.2L644.4,245.6L649.1,245.7L652.1,240.9L658.1,241.4L661.4,239.0L668.2,241.4L672.2,236.2L679.4,232.6L679.4,227.8L685.5,228.5L685.2,230.6L687.7,229.5L688.2,232.5L691.1,235.5L697.0,230.3L694.8,227.0L697.8,225.9L697.8,222.2L701.3,220.5L701.2,218.7L704.1,218.7L704.7,221.3L702.7,223.5L704.3,223.8L704.6,225.5L706.7,225.1L708.1,229.2L709.8,229.9L714.8,227.6L717.9,227.4L720.6,229.1L724.6,227.7L725.9,230.7L730.7,232.9L731.0,230.6L733.4,230.6L735.6,227.5Z"></path>
<path class="fhm-jud" data-slug="bihor" data-name="Bihor" d="M248.8,141.4L245.1,145.9L242.3,146.7L241.8,149.6L243.5,154.6L238.7,157.0L239.8,158.9L237.5,160.5L238.1,162.6L236.2,164.1L238.0,167.0L241.1,167.8L240.5,169.6L242.6,170.8L242.9,174.7L238.8,175.8L241.7,179.0L246.7,182.6L256.6,184.6L259.1,190.8L261.1,191.3L255.4,196.8L255.5,199.4L256.6,201.7L260.0,202.6L261.3,204.7L266.0,206.0L266.4,208.1L263.8,211.3L260.9,220.4L258.5,222.0L251.4,223.0L259.6,228.5L259.0,232.2L262.3,235.7L265.9,245.6L268.0,247.3L269.5,255.0L270.5,255.7L269.9,258.1L268.3,258.4L266.3,261.3L260.9,261.5L257.1,265.7L255.6,265.1L255.9,269.7L255.1,270.7L257.3,275.7L256.8,277.5L260.1,279.1L255.6,282.9L252.7,285.1L244.6,284.2L231.9,286.1L228.8,284.8L227.5,282.5L223.0,279.6L219.8,272.2L218.1,271.1L218.6,268.4L217.2,266.3L212.8,268.5L204.9,266.5L202.5,263.0L201.3,257.6L202.5,253.7L196.2,252.9L195.3,251.0L193.3,250.6L193.3,248.3L192.3,247.7L186.9,246.5L184.0,249.6L178.3,250.3L171.3,248.6L174.3,244.1L170.0,241.0L163.7,244.8L146.5,243.5L142.6,246.7L139.0,245.7L137.6,247.5L138.0,253.3L135.8,253.1L135.0,248.8L124.8,243.2L123.5,241.2L123.9,238.8L129.9,240.3L134.0,235.0L133.7,232.1L129.3,228.2L131.9,225.4L133.2,221.6L132.9,217.4L141.8,212.4L141.9,209.9L143.0,209.7L141.4,206.2L141.4,203.4L145.5,202.6L150.2,197.4L148.7,196.9L149.8,189.6L148.0,189.3L146.7,186.3L150.2,185.4L153.8,181.0L154.9,177.4L161.7,176.3L164.6,166.1L168.8,163.9L168.9,158.8L167.7,158.3L168.2,155.9L172.0,150.1L172.8,144.4L177.4,135.6L179.8,134.3L185.1,135.1L187.7,129.4L184.6,118.8L186.4,113.2L188.7,110.2L190.4,111.8L191.4,110.5L189.7,109.0L192.3,106.7L193.5,107.4L197.6,102.6L197.5,101.2L205.8,101.5L208.2,103.7L208.9,106.3L211.0,106.0L210.9,110.1L214.2,110.9L214.4,115.2L220.0,117.7L220.0,123.0L222.0,127.1L227.1,126.3L229.4,128.0L232.6,126.6L233.7,128.0L240.2,128.9L240.6,131.5L243.9,132.6L243.2,134.4L248.8,141.4Z"></path>
<path class="fhm-jud" data-slug="bistrita-nasaud" data-name="Bistrița-Năsăud" d="M497.7,101.5L502.3,105.6L506.5,107.1L511.7,114.4L511.6,115.9L506.8,119.1L508.8,123.8L511.1,124.2L507.4,126.7L507.2,128.7L504.4,126.0L501.7,128.4L505.5,133.8L509.1,136.2L508.2,138.5L510.0,140.5L510.2,144.5L504.8,148.7L510.2,153.2L506.8,158.7L508.9,167.1L508.0,169.2L508.5,171.6L506.3,172.2L503.7,175.3L496.6,174.3L494.4,177.9L490.9,175.8L486.3,177.8L479.3,185.8L477.2,192.2L474.3,195.3L474.3,199.5L472.4,202.3L474.9,205.1L472.6,207.1L465.6,206.1L462.1,199.5L458.8,200.7L457.7,205.3L451.2,207.9L452.5,211.6L451.5,214.8L444.4,220.0L443.6,224.6L445.8,225.5L443.7,228.1L439.8,226.9L438.1,230.3L434.0,231.0L431.6,229.3L427.7,230.0L414.8,222.1L416.7,219.9L415.8,218.1L418.2,216.9L417.7,213.7L419.0,211.6L418.6,206.6L412.8,202.3L413.9,198.8L408.4,196.9L407.3,194.6L407.1,191.7L408.7,189.3L406.8,188.1L410.2,179.8L406.1,173.0L405.1,174.8L403.2,174.4L402.6,172.4L400.1,172.2L397.3,165.3L393.1,166.7L390.6,165.2L387.3,153.9L387.5,150.8L388.9,149.0L388.1,147.1L389.3,145.5L394.6,143.7L396.5,145.0L398.7,143.5L397.7,139.9L398.2,137.2L402.2,134.8L403.4,130.3L407.3,127.6L409.4,121.9L408.4,119.5L409.8,117.1L410.8,118.2L412.1,115.8L415.1,115.1L421.6,115.9L422.5,113.3L424.2,113.6L425.3,109.9L427.8,107.3L428.0,104.2L432.5,106.0L436.8,99.7L456.4,106.7L457.5,105.4L462.8,104.6L465.0,106.0L465.0,107.4L479.3,104.6L481.4,106.1L483.4,101.6L488.3,101.9L491.1,100.6L497.7,101.5Z"></path>
<path class="fhm-jud" data-slug="botosani" data-name="Botoșani" d="M755.2,102.6L745.0,106.0L741.6,105.4L740.1,106.7L739.8,109.7L741.2,111.8L735.3,113.3L724.3,108.9L721.7,114.1L722.4,121.6L719.0,121.4L718.2,125.6L712.7,117.3L700.7,117.5L694.4,115.0L687.6,115.8L684.3,114.0L681.8,114.8L684.8,120.4L670.1,121.2L670.2,117.7L666.3,114.8L671.8,113.1L671.8,111.2L668.0,108.8L667.1,105.1L665.2,103.7L665.8,98.4L664.7,98.2L664.6,93.6L661.8,93.1L655.0,80.6L652.4,78.5L650.3,79.5L649.5,78.6L650.4,76.2L650.0,73.1L647.5,74.5L642.1,69.3L641.3,66.5L639.6,65.1L639.9,62.0L637.7,61.9L636.2,59.9L636.7,59.0L632.0,55.2L630.3,57.0L627.3,56.4L628.1,54.0L625.0,50.9L621.1,50.3L621.4,46.9L618.2,43.3L627.7,40.7L630.2,32.3L636.0,28.4L639.3,19.7L643.2,15.7L642.5,13.2L643.2,12.0L650.2,11.2L657.8,6.5L663.9,8.0L668.2,6.6L668.3,3.7L670.3,2.6L671.1,3.7L673.6,3.3L674.6,0.4L680.2,2.0L681.5,0.0L686.2,2.7L693.2,1.3L695.3,2.8L696.1,5.6L698.0,4.4L704.2,12.6L705.4,12.3L704.6,9.8L707.6,10.1L708.4,11.5L706.7,14.0L712.8,17.2L711.2,18.1L709.4,16.9L708.9,19.1L710.3,20.3L714.3,21.3L715.5,19.2L717.9,20.5L717.3,22.5L718.0,23.8L716.7,26.7L721.7,31.7L722.4,34.3L725.2,35.6L723.5,36.7L724.2,39.2L725.9,37.8L727.6,38.3L726.1,40.0L728.0,41.3L731.3,40.8L728.7,45.1L732.6,48.1L729.7,52.0L734.9,55.0L735.9,63.0L739.8,66.0L736.5,67.3L740.1,71.3L740.6,73.8L741.8,73.4L742.0,76.6L743.4,76.0L744.0,78.9L740.2,82.8L741.9,83.8L742.9,87.7L745.1,88.8L747.0,94.3L751.7,97.8L753.3,101.4L755.2,102.6Z"></path>
<path class="fhm-jud" data-slug="brasov" data-name="Brașov" d="M549.9,326.5L550.0,334.2L555.3,337.9L560.2,336.8L563.4,340.8L562.2,344.4L559.1,347.3L558.9,350.0L560.0,352.4L559.0,354.5L561.5,357.8L559.9,359.0L560.4,361.5L566.0,361.4L565.3,362.8L560.9,363.4L561.9,369.7L563.9,371.1L566.1,370.5L567.8,373.1L570.0,373.9L569.5,375.0L573.4,379.1L573.0,383.5L577.0,379.8L580.6,379.8L589.4,383.9L588.9,386.6L592.3,387.1L592.7,389.0L598.6,389.0L601.6,391.8L604.7,392.4L603.9,398.6L610.0,400.1L609.1,402.6L613.2,403.0L614.3,405.1L613.5,406.7L617.6,409.9L618.7,413.4L614.7,423.2L612.1,424.3L607.3,418.9L603.7,419.4L599.5,417.6L596.2,422.9L595.8,429.3L592.5,432.1L589.6,431.7L587.6,425.9L585.3,423.9L582.9,426.2L578.7,426.2L574.0,420.9L568.5,422.5L566.2,424.5L565.6,426.6L558.1,427.2L554.6,425.9L545.3,432.2L544.4,438.3L540.1,437.5L535.9,439.1L534.4,437.8L533.7,432.7L530.7,435.1L528.9,432.4L529.2,428.4L527.0,424.7L527.4,421.9L526.0,418.3L524.2,416.9L521.8,417.5L512.7,408.0L497.3,406.9L495.6,408.5L493.0,406.6L484.4,407.0L483.7,404.7L481.5,404.4L468.4,405.1L467.3,403.3L466.8,399.6L468.2,395.0L468.0,388.7L464.3,380.7L463.5,376.0L468.9,370.0L471.0,372.7L473.6,369.8L477.3,369.3L478.0,367.6L477.6,364.9L471.6,360.7L470.4,353.9L475.4,353.6L477.5,350.6L477.3,348.5L484.4,348.2L484.7,346.8L482.7,343.9L487.5,343.3L488.6,340.2L490.9,338.5L496.0,337.0L497.8,334.8L496.1,332.7L496.1,330.5L499.5,325.7L503.9,323.2L507.2,324.4L510.2,322.0L515.4,322.5L521.8,318.7L528.3,323.2L530.8,318.9L536.5,317.7L540.4,323.2L549.9,326.5Z"></path>
<path class="fhm-jud" data-slug="braila" data-name="Brăila" d="M822.9,435.6L822.5,441.4L819.1,453.5L824.6,457.9L828.7,459.1L832.0,457.9L833.4,461.8L829.4,468.2L840.5,475.9L837.6,478.8L838.6,480.7L837.9,481.9L834.0,482.1L835.8,491.4L833.3,495.1L835.6,501.7L832.9,509.0L833.2,511.8L834.8,513.9L830.1,518.9L826.7,529.9L823.5,533.6L819.8,534.0L814.1,530.6L807.1,533.3L805.8,531.4L802.1,531.0L800.7,528.1L801.3,524.6L797.0,524.6L795.7,527.2L790.9,527.4L792.6,530.8L790.3,531.0L790.1,532.7L776.4,530.2L764.4,531.4L760.0,527.8L756.9,531.8L755.2,530.2L754.2,531.5L749.8,527.3L746.5,531.5L744.2,529.9L741.0,535.3L737.8,532.2L737.4,530.3L735.3,529.6L738.2,518.6L736.3,517.9L736.6,516.8L738.6,517.1L743.6,497.5L740.1,498.0L740.0,493.0L734.7,492.9L735.6,481.8L733.6,483.8L731.4,480.4L729.6,471.2L725.6,473.3L725.9,476.2L723.9,477.4L720.8,473.0L726.8,464.6L732.3,459.2L739.1,465.2L739.5,463.6L743.8,466.7L744.7,464.6L749.2,465.0L751.0,461.9L748.5,460.8L749.7,458.7L747.5,457.3L749.2,453.9L752.7,455.7L754.7,453.0L754.1,446.9L756.8,445.3L756.1,442.7L760.5,439.9L759.2,435.3L772.9,422.8L777.3,423.4L780.2,427.8L782.2,426.7L782.0,424.3L783.7,425.2L786.5,423.7L787.1,425.3L785.0,429.2L788.4,430.8L792.5,429.0L793.3,433.6L796.6,432.8L796.9,435.1L800.1,437.1L805.1,436.7L807.4,433.1L818.2,437.6L822.9,435.6Z"></path>
<path class="fhm-jud" data-slug="bucuresti" data-name="București" d="M612.4,591.7L608.9,587.5L605.1,587.5L603.6,582.6L608.9,581.8L608.9,579.7L605.1,578.4L605.9,573.8L615.4,566.9L618.7,567.3L618.7,573.1L619.9,575.2L627.4,576.5L624.4,579.7L626.2,580.3L626.1,581.8L632.4,583.0L629.0,589.3L624.7,588.7L622.9,592.7L624.9,596.6L624.0,598.4L622.5,598.2L619.5,593.7L612.4,591.7Z"></path>
<path class="fhm-jud" data-slug="buzau" data-name="Buzău" d="M759.7,437.1L760.5,439.9L756.1,442.7L756.8,445.3L754.1,446.9L754.7,453.0L752.7,455.7L749.2,453.9L747.5,457.3L749.7,458.7L748.5,460.8L751.0,461.9L749.2,465.0L744.7,464.6L743.8,466.7L739.5,463.6L739.1,465.2L732.3,459.2L720.8,473.0L723.9,477.4L725.9,476.2L725.6,473.3L729.6,471.2L731.4,480.4L733.6,483.8L735.6,481.8L734.7,492.9L740.0,493.0L740.1,498.0L743.6,497.5L738.6,517.1L736.6,516.8L736.3,517.9L738.2,518.6L735.3,529.6L730.2,529.4L730.0,533.0L734.3,534.9L733.2,537.7L728.5,536.0L727.9,537.5L724.1,536.1L725.5,530.4L719.7,528.0L714.5,523.9L710.9,529.4L700.9,524.5L699.5,526.7L697.4,525.3L695.7,528.0L693.6,528.4L690.0,525.3L683.9,526.3L683.4,524.7L679.5,526.2L676.2,524.4L674.6,525.6L671.9,519.0L672.2,516.7L670.6,514.5L669.7,515.1L667.2,511.1L664.6,509.9L664.2,506.4L671.3,503.9L663.9,494.9L659.9,496.4L656.8,486.5L655.0,486.0L656.0,483.2L655.4,477.9L657.5,475.4L656.5,467.0L652.4,470.5L649.8,470.0L647.7,473.0L645.1,472.1L644.4,467.3L645.6,464.7L643.1,464.0L636.1,465.8L634.3,464.8L631.7,459.9L632.2,458.9L630.8,454.9L627.4,454.7L632.5,449.3L624.0,439.7L625.2,436.0L623.1,434.9L623.7,428.6L622.5,426.2L617.5,423.4L615.4,420.0L617.4,418.4L622.9,408.7L624.2,408.0L625.0,410.4L627.5,404.5L630.3,402.5L633.8,401.7L634.8,403.0L634.6,405.7L637.0,407.0L642.3,402.0L643.0,392.6L646.9,385.4L648.5,385.0L649.3,374.9L654.5,379.0L654.0,384.5L657.2,387.5L657.2,389.8L658.9,390.3L660.0,394.0L663.9,399.5L667.2,401.5L670.3,400.6L670.6,402.6L672.9,401.5L676.4,404.4L678.3,404.0L684.1,410.1L685.8,410.2L687.0,413.5L693.1,413.7L696.0,418.2L698.1,417.1L701.6,418.5L703.1,417.4L703.2,415.7L710.7,415.7L713.9,422.3L718.8,428.3L723.3,429.2L725.3,424.8L730.5,426.3L726.5,429.0L724.8,432.2L726.4,433.0L725.9,434.8L728.9,434.6L732.2,431.9L734.3,428.1L735.4,428.2L737.4,432.0L743.3,427.9L743.4,432.0L741.7,433.0L742.3,437.7L749.7,438.7L749.4,440.6L755.4,438.8L756.2,439.7L759.7,437.1Z"></path>
<path class="fhm-jud" data-slug="calarasi" data-name="Călărași" d="M821.6,597.8L819.5,603.1L812.7,611.5L800.0,612.1L791.4,618.9L788.6,619.7L780.4,618.2L773.2,620.9L762.4,630.3L751.1,629.9L748.2,628.2L738.4,631.8L733.3,631.2L729.1,628.5L723.3,629.3L718.2,627.5L713.1,629.2L702.9,629.5L688.6,637.7L680.9,638.2L670.6,641.9L664.7,641.3L653.8,644.5L648.0,643.0L645.7,633.1L651.9,630.5L653.1,627.4L651.6,622.7L650.1,621.5L650.2,615.4L646.0,615.5L645.9,612.7L639.9,610.6L634.7,604.1L636.8,601.3L634.5,599.2L637.5,596.4L640.1,596.1L641.2,593.0L640.9,590.1L639.4,590.1L638.1,587.8L638.7,586.0L642.0,589.2L656.8,580.5L655.6,579.1L649.6,579.9L645.9,575.5L656.3,567.2L653.9,565.9L656.1,563.2L658.4,562.3L661.5,564.9L663.1,564.5L667.4,569.3L671.2,569.9L675.1,567.0L678.2,558.8L680.2,559.5L679.4,562.0L680.1,563.4L684.6,564.4L684.3,567.6L687.7,569.0L688.3,565.7L691.1,567.0L690.3,570.2L692.1,571.7L693.7,570.1L695.0,571.6L695.7,569.1L702.4,570.9L714.1,569.0L714.1,572.0L723.4,572.0L723.4,575.6L728.1,576.0L728.5,573.2L735.6,575.8L735.5,571.0L737.6,571.3L737.9,574.3L741.6,575.0L742.1,572.4L744.5,572.8L744.2,574.9L750.3,575.5L751.1,570.7L755.0,572.5L754.9,574.0L766.9,574.3L768.6,573.8L769.4,566.7L771.5,567.0L771.6,563.9L774.3,564.4L774.1,578.3L781.4,577.8L783.5,582.3L783.0,585.4L791.2,585.7L791.4,587.7L795.3,589.4L792.7,591.4L793.8,593.8L793.0,594.4L795.5,597.1L797.4,595.5L799.9,598.6L802.1,596.7L804.3,591.6L821.6,597.8Z"></path>
<path class="fhm-jud" data-slug="caras-severin" data-name="Caraș-Severin" d="M256.2,459.0L252.7,461.5L252.8,463.0L250.3,465.3L247.5,465.9L243.3,473.4L245.4,476.1L252.7,477.7L253.4,480.7L236.0,501.2L238.0,502.3L238.4,504.2L236.1,505.4L235.3,507.5L236.3,509.0L236.2,510.9L235.0,511.3L235.4,515.1L228.8,527.5L228.2,534.3L225.0,534.1L224.5,536.0L222.4,536.0L220.1,531.6L211.8,530.0L209.7,526.5L206.7,525.0L205.0,529.1L205.5,533.5L203.5,536.6L201.6,536.6L200.6,538.3L198.6,548.9L202.1,550.7L202.7,554.3L199.5,560.1L198.2,558.2L196.3,559.4L193.5,555.2L192.0,554.8L185.6,558.2L182.8,553.0L175.4,551.0L163.7,550.2L162.3,548.5L155.1,549.9L151.7,548.4L145.9,549.1L143.9,548.0L142.7,545.0L143.1,540.8L140.6,534.4L134.2,531.8L122.9,531.7L119.5,530.2L117.8,525.3L115.9,524.3L116.5,523.2L115.4,521.8L116.8,517.8L126.1,516.4L129.3,517.2L137.3,514.1L135.8,507.8L127.6,503.5L124.3,503.2L121.0,500.4L121.9,499.2L116.1,494.1L126.3,491.0L125.3,488.7L129.1,483.2L127.7,481.3L128.6,478.7L133.8,476.2L134.0,474.7L132.7,471.4L130.2,470.7L128.5,467.7L130.8,467.3L133.7,461.9L133.2,459.9L134.6,456.9L137.8,453.6L137.3,449.0L134.3,449.1L133.6,446.7L130.2,444.9L127.9,445.9L125.9,443.5L127.1,442.5L125.6,440.9L124.6,435.1L129.7,433.3L129.3,430.9L126.3,429.6L126.1,428.0L123.7,427.8L123.9,425.4L125.8,425.8L130.9,422.8L132.1,424.4L133.9,424.0L139.4,420.1L138.6,417.6L139.1,414.2L141.3,412.3L141.5,410.1L144.4,410.6L149.4,407.9L152.1,411.3L154.7,411.4L157.1,414.2L161.4,415.9L166.0,416.6L166.8,415.4L171.3,415.4L172.4,414.0L176.5,414.9L178.1,420.1L181.2,419.1L187.5,420.7L189.4,419.5L189.2,418.1L190.4,416.7L195.3,415.5L191.6,411.0L188.9,413.4L189.1,409.7L187.8,407.7L188.7,407.0L191.7,410.0L195.2,406.5L202.1,405.1L203.8,403.0L206.0,404.9L209.0,405.0L210.9,407.8L212.4,408.0L214.7,405.0L217.9,396.3L229.1,395.2L232.0,396.5L231.9,398.6L238.2,406.5L245.5,408.2L247.0,409.8L246.7,411.6L251.0,410.1L253.6,417.3L255.6,418.6L255.5,421.5L257.1,422.5L259.4,433.8L253.5,440.6L257.1,447.3L257.7,451.0L255.6,454.1L256.9,455.3L256.2,459.0Z"></path>
<path class="fhm-jud" data-slug="cluj" data-name="Cluj" d="M398.2,137.2L397.7,139.9L398.7,143.5L396.5,145.0L394.6,143.7L389.3,145.5L388.1,147.1L388.9,149.0L387.5,150.8L387.3,153.9L389.1,161.9L390.6,165.2L393.1,166.7L397.3,165.3L400.1,172.2L402.6,172.4L403.2,174.4L405.1,174.8L406.1,173.0L408.6,176.3L410.2,179.8L406.8,188.1L408.7,189.3L407.1,191.7L407.3,194.6L408.4,196.9L413.9,198.8L412.8,202.3L418.6,206.6L419.0,211.6L417.7,213.7L418.2,216.9L415.8,218.1L416.7,219.9L414.8,222.1L415.7,223.9L408.1,227.6L409.2,231.0L405.6,230.4L403.0,232.9L405.3,236.4L409.0,238.1L406.7,244.0L399.4,246.5L398.0,249.1L398.6,250.7L402.6,251.9L401.4,259.2L399.8,259.9L400.6,261.7L398.7,263.7L394.3,262.3L391.5,266.4L393.0,271.4L392.4,272.7L396.3,277.4L394.3,279.1L390.2,276.3L387.7,276.3L386.3,274.2L380.5,276.1L379.2,274.2L376.1,273.7L367.3,276.0L364.2,275.0L361.6,276.3L361.1,279.3L358.8,279.6L359.4,281.3L361.8,282.5L359.7,284.0L357.0,283.4L353.9,281.6L352.6,278.3L352.3,276.3L353.8,273.2L353.1,270.6L350.7,269.0L349.1,270.4L347.5,268.2L345.3,270.7L331.4,262.5L326.2,263.6L315.0,270.0L310.6,269.7L309.5,267.1L301.3,269.8L299.0,273.7L294.8,273.2L295.8,269.7L291.1,268.0L289.8,261.2L281.6,260.5L276.9,263.0L269.9,259.8L270.5,255.7L269.5,255.0L269.5,251.8L268.0,247.3L265.9,245.6L262.3,235.7L259.0,232.2L259.6,228.5L251.4,223.0L258.5,222.0L260.9,220.4L263.8,211.3L266.4,208.1L266.0,206.0L261.3,204.7L260.0,202.6L256.6,201.7L255.5,199.4L255.4,196.8L261.7,191.2L268.1,195.9L272.0,193.3L278.4,196.1L279.2,197.1L278.9,201.0L283.3,205.2L291.3,208.0L293.2,207.4L294.9,209.0L296.3,207.4L298.3,207.9L299.6,209.1L298.7,212.6L299.9,213.8L304.0,213.9L308.5,210.8L310.2,212.2L313.3,208.7L311.5,204.0L313.9,202.8L312.7,201.6L315.0,200.4L317.3,202.4L317.0,204.9L319.1,207.4L320.6,208.0L324.3,205.5L325.8,206.3L330.5,200.1L329.7,197.6L330.7,195.9L340.1,189.9L340.0,184.0L337.6,182.7L335.6,179.5L341.3,178.5L341.8,174.5L343.0,174.6L342.6,168.8L347.2,168.1L348.5,165.4L350.7,164.9L353.6,167.3L357.0,164.6L356.3,162.9L360.0,156.3L365.6,154.3L369.6,155.5L370.6,149.2L375.6,154.1L376.0,151.6L374.5,149.5L378.4,143.2L378.6,139.1L380.2,136.3L382.4,135.9L384.5,138.1L387.6,138.7L392.6,136.7L398.2,137.2Z"></path>
<path class="fhm-jud" data-slug="constanta" data-name="Constanța" d="M924.9,545.9L918.3,556.0L909.6,573.0L894.8,592.3L892.1,598.3L887.3,599.6L886.4,602.0L885.4,606.9L885.8,613.3L889.3,619.2L889.0,621.2L890.0,623.6L888.8,626.3L890.2,627.5L887.9,630.3L887.6,634.8L889.3,634.3L890.7,636.0L887.2,638.0L890.3,651.6L887.5,656.4L887.0,661.3L884.5,665.2L884.1,672.3L882.4,673.6L880.9,679.9L880.9,689.2L865.8,689.8L843.6,684.6L832.0,680.4L819.1,673.5L813.8,651.9L810.9,648.3L803.1,654.7L791.9,656.6L789.0,655.7L785.1,645.0L781.9,642.2L778.5,647.7L763.4,646.1L756.0,647.7L751.4,640.6L744.5,638.1L743.0,633.5L742.5,630.3L745.2,628.6L762.4,630.3L773.2,620.9L780.4,618.2L788.6,619.7L791.4,618.9L800.0,612.1L812.7,611.5L819.5,603.1L822.7,593.5L831.2,582.4L829.2,575.1L825.4,572.1L821.4,563.5L823.2,556.4L822.9,554.0L815.3,545.9L812.5,546.1L807.0,541.5L806.1,539.0L806.5,535.1L808.8,531.8L814.1,530.6L819.8,534.0L823.5,533.6L826.7,529.9L827.5,527.1L831.9,528.7L835.9,527.6L838.9,529.9L838.9,533.6L840.3,534.6L845.1,533.0L845.5,539.3L844.2,541.1L848.7,543.3L852.8,541.1L854.3,541.8L853.0,543.5L858.4,544.2L860.5,545.8L859.6,548.2L860.6,552.1L863.4,554.0L863.5,556.2L865.7,555.6L866.9,550.1L864.9,549.6L865.8,546.8L867.4,546.8L867.2,548.5L869.4,549.2L869.4,550.8L875.6,553.1L876.1,548.8L882.3,549.9L892.1,547.6L890.9,549.8L892.1,550.5L902.2,549.8L903.3,552.7L907.1,553.2L918.3,543.2L924.9,545.9Z"></path>
<path class="fhm-jud" data-slug="covasna" data-name="Covasna" d="M635.6,307.2L642.4,309.7L643.9,314.2L642.8,316.8L644.6,320.1L644.1,323.8L648.7,322.9L648.5,325.7L646.7,326.8L647.3,328.4L653.2,332.8L655.0,341.8L653.5,344.8L654.1,346.5L649.0,351.6L649.6,356.9L647.5,358.9L648.8,364.1L647.1,368.6L649.3,374.9L648.5,385.0L646.9,385.4L643.0,392.6L642.3,402.0L639.0,406.1L637.0,407.0L634.6,405.7L634.8,403.0L633.8,401.7L630.3,402.5L627.5,404.5L625.0,410.4L624.2,408.0L622.9,408.7L617.4,418.4L618.7,413.4L617.6,409.9L613.5,406.7L614.3,405.1L613.2,403.0L609.1,402.6L610.0,400.1L603.9,398.6L604.7,392.4L601.6,391.8L598.6,389.0L592.7,389.0L592.3,387.1L588.9,386.6L589.4,383.9L580.6,379.8L577.0,379.8L573.0,383.5L573.4,379.1L569.5,375.0L570.0,373.9L567.8,373.1L566.1,370.5L563.9,371.1L561.9,369.7L560.9,363.4L565.3,362.8L566.0,361.4L560.4,361.5L559.9,359.0L561.5,357.8L559.0,354.5L560.0,352.4L558.9,350.0L559.1,347.3L562.2,344.4L563.4,340.8L560.2,336.8L555.3,337.9L550.0,334.2L549.6,328.9L551.2,328.7L552.5,322.8L555.7,320.1L555.4,316.5L561.2,311.7L562.7,312.3L565.6,308.0L568.6,307.6L576.0,302.6L578.7,302.9L579.6,304.7L578.8,306.4L585.9,315.8L585.3,317.4L592.7,326.6L605.9,324.4L609.8,325.3L613.8,320.4L622.5,318.7L626.0,320.4L626.5,317.7L629.9,317.3L631.0,313.4L635.4,312.0L634.8,310.2L635.6,307.2Z"></path>
<path class="fhm-jud" data-slug="dambovita" data-name="Dâmbovița" d="M549.6,430.0L551.9,432.2L551.6,434.6L553.1,437.0L551.7,441.3L551.9,447.2L553.5,449.2L555.1,448.7L560.5,456.0L556.7,461.8L558.9,466.1L558.4,468.5L560.9,467.8L561.7,471.0L565.2,474.7L564.7,475.3L567.9,480.9L569.6,483.2L572.9,484.4L576.1,490.3L576.1,491.8L574.5,492.7L573.4,495.7L574.2,500.4L573.6,502.7L574.7,505.2L580.8,506.0L585.2,504.3L586.8,509.2L587.7,509.0L589.0,511.9L587.4,513.7L588.0,516.3L586.9,517.4L586.8,519.7L583.8,522.0L584.1,523.9L591.0,526.1L592.3,523.0L594.3,523.7L597.7,528.3L599.8,533.3L601.4,534.1L598.0,537.7L599.0,540.9L600.9,544.0L603.3,543.6L602.6,540.4L604.4,539.7L605.1,542.9L606.6,544.2L603.3,545.4L604.8,546.7L604.2,549.2L601.6,549.3L601.3,551.1L605.9,553.8L606.9,556.3L597.7,563.7L595.8,561.1L594.6,563.4L596.2,567.1L594.5,568.2L592.2,567.4L591.4,569.2L587.6,565.9L585.4,568.8L576.8,566.6L574.1,569.8L569.1,565.9L567.1,565.6L565.4,569.0L558.9,567.4L552.8,573.5L554.8,575.2L554.6,578.6L552.7,580.7L547.2,577.4L549.4,574.7L543.6,570.6L540.9,573.8L539.5,579.5L538.0,578.7L535.9,582.4L533.3,584.0L533.9,584.9L528.3,588.1L526.7,584.9L531.2,580.5L530.4,579.1L531.5,577.2L529.1,571.6L533.3,564.8L530.9,563.1L528.6,563.9L524.4,555.9L523.0,557.0L522.2,555.1L523.5,553.2L519.6,548.7L522.6,548.0L527.0,543.7L521.4,540.5L521.1,537.2L522.1,537.4L524.4,530.4L521.8,523.4L523.4,519.4L522.3,516.9L522.7,511.9L519.5,509.0L519.7,501.4L520.5,498.8L522.5,498.6L522.7,494.3L520.0,491.0L517.4,491.3L517.5,489.3L515.0,487.2L516.9,484.3L519.7,484.9L520.8,483.4L520.5,480.8L517.3,477.2L518.0,473.3L517.3,466.9L519.3,465.5L523.8,472.3L528.8,469.3L528.0,465.0L530.3,464.6L532.9,461.8L531.6,455.8L534.1,452.6L535.3,448.0L534.6,446.0L536.2,444.6L535.9,439.1L540.1,437.5L544.4,438.3L545.3,432.2L549.6,430.0Z"></path>
<path class="fhm-jud" data-slug="dolj" data-name="Dolj" d="M372.6,540.8L373.4,552.4L376.4,550.9L380.9,554.3L385.1,554.2L383.3,555.9L385.0,562.0L386.4,561.4L387.5,563.7L388.2,568.8L384.2,572.1L385.7,573.5L381.4,578.0L385.0,579.8L383.3,585.1L390.7,586.1L392.5,587.0L391.4,591.4L400.6,593.4L400.3,596.3L403.2,598.8L405.5,603.9L407.3,603.7L407.7,608.9L411.3,609.4L414.3,611.3L413.8,613.7L417.7,613.7L418.3,616.2L420.1,616.8L418.3,623.1L420.7,623.5L418.3,632.8L424.5,633.1L424.5,636.0L417.1,635.6L415.9,639.0L414.3,648.6L423.9,649.7L423.4,653.5L422.5,656.1L420.4,655.4L419.5,658.5L422.1,660.2L419.9,667.1L420.6,667.3L419.9,672.2L416.9,671.2L416.2,678.4L412.3,677.9L409.5,683.9L407.7,695.3L392.3,688.5L382.4,687.2L370.9,682.2L369.3,679.8L364.1,679.4L356.8,681.3L351.4,680.5L344.5,675.3L336.1,672.4L318.2,672.9L303.7,679.2L295.6,680.7L278.7,675.6L275.7,674.2L273.2,670.3L272.7,666.8L275.2,661.1L277.0,652.4L282.3,649.4L290.3,647.9L294.7,640.7L292.4,635.9L286.3,634.5L290.4,628.3L290.4,625.4L301.5,626.7L302.3,620.7L299.9,619.2L301.7,616.4L299.8,615.6L299.8,609.5L301.4,608.2L303.7,601.4L308.5,600.1L310.3,595.8L309.9,594.5L313.5,591.1L316.2,590.9L310.8,586.5L311.6,583.1L310.7,580.6L311.0,578.2L316.0,576.1L315.7,574.1L319.5,573.1L319.9,571.0L318.0,568.8L323.5,567.3L325.5,569.7L327.9,566.8L335.3,568.1L339.1,561.8L343.4,560.8L344.4,557.9L352.3,555.8L353.9,559.0L355.9,559.8L363.7,557.8L365.2,557.0L366.1,554.0L364.9,549.3L366.4,545.5L365.4,540.6L366.1,538.6L372.6,540.8Z"></path>
<path class="fhm-jud" data-slug="galati" data-name="Galați" d="M832.0,328.4L829.1,334.3L830.8,336.8L828.8,343.4L833.0,356.8L831.7,360.1L833.7,363.7L831.8,367.8L831.5,373.0L834.0,378.6L836.0,377.9L834.9,381.3L837.3,384.9L836.7,386.7L837.7,389.3L836.7,390.1L837.8,393.7L836.9,396.5L838.1,398.7L835.0,402.3L832.3,401.7L829.2,404.2L832.5,410.0L834.6,409.4L837.2,414.0L837.9,420.8L839.6,425.1L844.4,426.6L840.5,428.3L840.1,433.7L839.0,434.2L831.1,429.9L827.6,430.9L822.9,435.6L818.2,437.6L807.4,433.1L805.1,436.7L800.1,437.1L796.9,435.1L796.6,432.8L793.3,433.6L792.5,429.0L788.4,430.8L785.0,429.2L787.1,425.3L786.5,423.7L783.7,425.2L782.0,424.3L782.2,426.7L780.2,427.8L777.3,423.4L772.9,422.8L769.3,418.0L769.3,412.9L767.1,411.4L767.8,409.3L770.0,409.0L768.6,407.0L768.2,402.9L766.6,400.4L763.5,400.2L761.1,394.0L758.8,395.2L757.1,393.9L752.2,386.6L751.5,382.1L744.5,366.1L743.4,366.6L742.4,364.0L740.1,364.2L740.4,362.7L743.9,362.1L738.9,351.5L737.7,344.4L738.4,338.4L742.2,338.5L743.6,333.3L745.1,331.9L752.8,332.8L752.9,331.6L759.1,330.7L758.0,324.9L758.9,323.6L761.2,325.5L764.7,325.6L765.0,323.5L767.0,323.5L770.5,330.4L768.5,331.8L770.1,334.6L768.3,336.2L773.3,343.8L775.9,343.6L777.8,341.8L776.8,340.6L777.3,336.2L780.2,335.4L776.0,327.8L776.6,325.6L775.3,322.8L776.4,321.9L778.4,324.0L782.6,323.4L794.5,325.3L796.7,330.3L803.3,325.5L803.4,320.6L805.8,320.2L806.1,322.6L810.2,321.4L811.9,321.6L813.3,324.2L815.8,323.3L818.0,327.9L820.7,327.2L820.6,328.8L827.7,326.9L830.8,327.0L832.0,328.4Z"></path>
<path class="fhm-jud" data-slug="giurgiu" data-name="Giurgiu" d="M596.2,567.1L599.4,570.9L596.7,575.5L598.5,577.4L597.2,580.5L593.9,579.5L593.5,582.0L591.5,583.8L593.9,585.7L589.1,588.8L589.6,590.1L592.8,590.7L593.9,595.2L595.7,595.0L598.0,598.7L602.9,599.5L602.6,601.3L607.2,601.4L607.9,603.9L614.1,609.0L617.0,608.8L617.1,610.3L623.6,614.0L626.4,611.8L627.9,612.7L628.5,610.5L635.3,604.6L639.9,610.6L645.9,612.7L646.0,615.5L650.2,615.4L650.1,621.5L651.6,622.7L653.1,627.4L651.9,630.5L645.7,633.1L648.0,643.0L640.0,645.5L628.1,652.1L623.3,652.0L619.6,653.8L612.3,664.6L601.4,672.1L595.5,682.6L586.7,689.7L584.4,693.7L579.6,696.4L573.0,696.6L573.6,692.0L572.0,692.4L571.7,688.2L570.8,687.7L572.5,684.1L571.7,683.3L571.7,676.9L568.5,676.9L568.5,673.3L566.1,673.3L566.9,664.2L563.7,663.8L563.8,659.0L567.3,659.1L567.3,656.2L564.5,651.9L565.8,651.0L564.7,647.5L565.3,643.8L568.4,641.7L567.0,639.7L568.0,636.5L570.3,635.1L569.5,634.2L571.6,632.1L576.5,632.9L576.7,628.9L573.7,630.3L573.6,625.6L576.3,625.1L571.2,623.8L572.4,617.3L575.5,611.5L572.5,608.4L572.7,605.0L571.3,604.3L570.7,607.7L567.3,605.1L568.7,602.8L567.6,601.5L565.7,600.7L562.3,602.6L560.2,601.0L555.8,601.7L551.4,600.0L552.3,595.7L551.7,592.7L546.9,589.1L554.6,578.6L554.8,575.2L552.8,573.5L558.9,567.4L565.4,569.0L567.1,565.6L569.1,565.9L574.1,569.8L576.8,566.6L585.4,568.8L587.6,565.9L591.4,569.2L592.2,567.4L594.5,568.2L596.2,567.1Z"></path>
<path class="fhm-jud" data-slug="gorj" data-name="Gorj" d="M372.6,540.8L366.1,538.6L365.4,540.6L366.4,545.5L364.9,549.3L366.1,554.0L365.2,557.0L355.9,559.8L353.9,559.0L352.3,555.8L344.4,557.9L343.4,560.8L338.1,562.8L333.9,561.4L332.5,559.5L333.5,556.5L326.2,553.0L321.0,547.3L309.7,546.0L310.4,543.8L302.0,544.9L299.3,543.6L296.5,541.1L296.8,538.8L290.6,536.3L289.0,530.5L285.7,528.4L283.6,530.2L282.8,525.4L280.5,524.1L278.9,521.2L278.8,514.8L276.2,505.2L278.2,501.2L278.4,497.8L274.2,498.4L274.6,496.8L272.6,495.5L272.0,493.6L265.3,489.5L263.1,486.9L262.9,484.6L258.5,486.7L256.4,481.0L253.4,480.7L252.7,477.7L245.4,476.1L243.3,473.4L247.5,465.9L250.3,465.3L252.8,463.0L252.7,461.5L256.2,459.0L270.4,455.7L271.8,453.7L275.6,457.3L282.7,454.7L286.1,456.0L286.4,457.9L291.5,458.4L297.4,454.9L299.1,455.3L299.7,452.9L306.5,455.3L309.6,453.7L311.8,454.9L313.7,451.5L316.0,450.3L320.6,450.0L322.6,451.4L325.2,449.1L324.8,448.1L326.6,445.9L332.7,446.5L335.9,449.2L341.7,449.2L352.4,443.4L356.5,446.1L358.8,443.9L362.6,447.3L370.3,445.8L372.2,444.0L376.2,444.5L379.5,447.3L379.3,449.2L374.2,457.4L376.5,465.6L378.8,467.7L380.5,474.2L376.0,478.3L377.1,479.5L376.4,481.6L377.7,485.8L372.8,487.5L374.1,493.6L370.1,496.5L371.7,504.9L370.9,508.6L371.4,511.2L370.4,512.7L374.2,525.1L371.5,530.9L372.6,533.8L372.6,540.8Z"></path>
<path class="fhm-jud" data-slug="harghita" data-name="Harghita" d="M567.9,177.9L579.6,181.2L581.1,185.2L583.3,187.0L583.3,189.8L585.5,192.9L585.7,195.3L587.2,197.7L588.7,195.9L590.7,198.1L592.5,204.5L586.7,203.6L586.7,205.2L582.8,209.9L584.6,213.4L582.6,215.8L584.4,217.6L585.3,215.2L587.1,216.7L585.9,217.8L590.5,220.2L587.4,222.9L588.3,230.6L585.2,234.5L585.9,237.3L593.6,245.7L598.1,244.8L595.8,240.7L598.0,237.9L605.2,238.6L608.4,244.1L608.6,248.0L606.8,250.9L607.6,253.2L611.3,257.8L611.5,261.9L615.6,264.7L616.5,266.7L615.6,271.0L614.1,269.5L609.8,269.7L608.2,277.1L606.5,277.8L608.0,279.7L607.5,280.7L609.9,282.5L611.3,281.2L614.3,282.0L614.3,283.7L619.4,283.7L625.2,286.1L625.1,291.8L623.6,295.0L624.3,296.8L629.9,297.3L631.7,296.3L632.8,293.7L636.5,292.2L638.8,293.9L637.3,299.2L634.6,302.5L635.4,312.0L631.0,313.4L629.9,317.3L626.5,317.7L626.0,320.4L622.5,318.7L613.8,320.4L609.8,325.3L605.9,324.4L592.7,326.6L585.3,317.4L585.9,315.8L578.8,306.4L579.6,304.7L578.7,302.9L576.0,302.6L568.6,307.6L565.6,308.0L562.7,312.3L561.2,311.7L555.4,316.5L555.7,320.1L552.5,322.8L551.2,328.7L549.6,328.9L549.9,326.5L540.4,323.2L536.5,317.7L530.8,318.9L528.3,323.2L521.8,318.7L520.1,319.3L516.7,317.3L512.4,309.4L509.9,309.4L509.2,307.4L505.8,308.2L502.3,306.9L500.3,308.6L497.1,306.8L495.8,307.8L494.5,303.7L487.2,297.4L488.0,293.0L487.0,290.7L489.6,289.4L488.8,286.7L492.1,285.3L496.4,287.7L499.6,286.2L497.5,283.3L495.1,282.5L495.1,280.4L496.5,278.7L496.2,277.2L499.7,277.1L501.4,274.2L503.7,274.1L504.4,271.9L500.8,268.6L504.2,262.3L509.1,260.1L511.1,256.9L513.3,256.0L517.8,256.8L522.8,249.3L525.2,249.5L525.4,247.4L527.0,245.9L526.9,242.8L531.6,242.4L533.0,239.9L529.3,234.0L529.5,230.5L532.4,230.1L535.5,227.5L534.9,225.0L532.1,222.6L531.8,217.6L528.5,216.6L531.1,208.1L529.6,205.7L530.5,200.6L531.8,199.5L532.4,193.5L529.9,190.7L530.5,188.0L526.3,183.0L526.2,180.9L527.9,177.5L533.1,174.8L532.2,172.2L533.0,168.6L534.4,167.1L546.9,164.4L546.9,166.3L550.6,170.6L557.6,176.4L558.5,179.7L565.5,180.6L567.9,177.9Z"></path>
<path class="fhm-jud" data-slug="hunedoara" data-name="Hunedoara" d="M353.2,425.2L351.0,432.6L352.6,433.0L353.5,438.0L353.4,439.7L351.9,440.8L352.4,443.4L341.7,449.2L335.9,449.2L332.7,446.5L326.6,445.9L324.8,448.1L325.2,449.1L322.6,451.4L320.6,450.0L316.0,450.3L313.7,451.5L311.8,454.9L309.6,453.7L306.5,455.3L299.7,452.9L299.1,455.3L288.2,458.5L286.4,457.9L286.1,456.0L282.7,454.7L275.6,457.3L271.8,453.7L270.4,455.7L256.2,459.0L256.9,455.3L255.6,454.1L257.7,451.0L257.1,447.3L253.5,440.6L259.4,433.8L257.1,422.5L255.5,421.5L255.6,418.6L253.6,417.3L251.0,410.1L246.7,411.6L247.0,409.8L245.5,408.2L238.2,406.5L231.9,398.6L232.0,396.5L229.1,395.2L230.1,393.2L233.5,391.5L233.6,385.8L237.5,383.9L242.3,378.5L240.7,375.1L236.9,377.5L234.8,377.3L233.7,375.0L234.6,374.1L234.1,371.2L229.4,365.5L227.1,365.6L224.6,362.3L224.9,360.4L227.2,358.9L228.2,354.4L219.9,348.0L219.7,346.0L220.8,345.1L224.5,345.5L225.2,343.6L226.8,344.4L230.2,343.1L230.6,340.6L229.2,339.7L229.9,337.4L229.3,332.8L226.8,330.2L227.7,328.3L231.1,327.1L233.4,322.2L230.3,313.1L235.4,308.8L238.3,310.5L245.8,309.2L248.1,311.5L250.2,309.5L251.3,310.4L253.5,309.0L254.1,306.9L253.3,305.6L256.2,297.6L255.6,296.3L263.2,291.3L266.3,291.5L269.9,295.2L276.4,293.3L282.8,295.0L283.8,299.2L286.0,301.7L284.3,304.2L287.9,311.6L295.2,312.2L300.0,317.0L299.5,319.5L300.9,321.9L300.2,323.5L295.7,323.4L297.0,326.3L296.7,328.1L298.8,329.1L300.2,332.6L298.7,334.0L304.1,339.2L309.4,340.6L312.0,339.3L314.7,340.7L314.7,346.4L318.0,354.9L321.5,357.2L324.1,356.8L325.2,358.7L323.0,359.5L322.8,361.1L325.0,363.7L324.1,369.5L326.7,377.1L330.2,381.5L328.2,388.1L334.2,394.5L328.8,399.6L329.1,401.6L331.0,402.3L333.5,400.7L335.0,402.2L334.2,403.7L335.3,407.5L342.6,408.8L344.8,413.2L346.7,413.4L350.5,417.8L352.9,422.2L353.2,425.2Z"></path>
<path class="fhm-jud" data-slug="iasi" data-name="Iași" d="M831.8,217.1L825.3,215.0L821.2,217.8L818.6,217.0L817.5,214.1L813.6,214.5L814.2,217.2L809.9,221.9L805.9,216.8L805.6,214.4L803.5,212.9L802.0,213.2L801.6,214.7L798.2,213.7L800.0,210.7L799.6,199.5L795.4,200.2L797.6,211.6L795.1,211.0L791.4,204.2L790.5,204.6L788.5,201.5L787.2,202.0L783.6,196.4L781.3,195.9L779.5,193.7L778.0,198.9L779.1,200.0L778.9,203.3L781.3,205.7L780.7,208.2L778.1,208.7L777.2,210.4L773.4,209.8L771.6,205.4L768.8,205.4L770.2,210.4L765.6,212.3L758.7,213.4L756.3,211.3L755.9,208.6L749.4,212.5L737.7,212.5L735.2,210.3L731.9,203.7L726.6,199.9L727.9,198.0L729.5,198.3L732.0,196.1L732.8,194.1L736.7,196.4L738.0,195.8L739.2,190.6L733.5,187.8L732.5,186.2L733.2,183.1L730.2,179.8L724.0,178.4L720.1,179.5L719.2,182.8L717.3,183.8L716.1,187.3L714.0,186.4L712.0,180.6L710.7,180.7L709.6,185.4L703.4,188.1L700.8,183.6L696.1,185.9L693.8,182.1L688.2,177.5L684.6,179.4L680.1,175.3L675.2,178.3L672.9,175.7L672.8,170.5L671.4,168.8L672.3,168.0L671.6,166.2L673.1,164.7L670.9,160.4L668.5,159.3L666.9,155.8L661.6,151.0L665.9,146.5L667.4,147.9L668.6,145.7L666.3,145.3L663.2,141.2L661.9,141.3L660.6,137.3L661.5,135.7L660.0,132.6L663.6,130.7L664.2,133.0L668.2,133.1L668.3,135.1L672.3,138.3L679.1,137.8L677.8,136.0L679.2,134.4L676.4,131.3L682.0,128.4L679.8,125.4L679.8,122.8L682.0,120.6L684.8,120.4L681.8,114.8L684.3,114.0L687.6,115.8L694.4,115.0L700.7,117.5L712.7,117.3L718.2,125.6L719.0,121.4L722.4,121.6L721.7,114.1L724.3,108.9L735.3,113.3L741.2,111.8L739.8,109.7L740.1,106.7L741.6,105.4L745.0,106.0L755.2,102.6L760.1,108.5L761.9,115.1L764.1,118.5L769.2,119.0L774.6,122.8L772.8,124.7L772.6,127.5L774.7,128.7L775.5,131.5L774.1,132.2L774.1,135.4L777.4,136.4L776.7,139.2L778.9,140.9L777.8,142.3L780.2,143.8L780.7,146.2L784.2,145.6L788.4,148.3L790.8,147.4L793.9,154.5L792.7,155.4L797.0,159.0L797.2,163.5L798.8,163.9L798.2,166.5L799.7,167.4L797.8,169.7L799.0,171.4L803.7,172.5L801.3,173.6L806.2,175.9L810.6,181.8L815.2,183.6L814.3,185.2L821.2,188.8L823.3,187.8L824.2,189.3L823.2,190.3L829.8,196.0L828.0,198.0L830.1,200.2L830.2,203.6L831.6,204.2L830.5,206.2L828.9,206.5L828.8,208.1L830.6,208.3L832.2,210.8L830.2,212.2L832.7,214.2L831.8,217.1Z"></path>
<path class="fhm-jud" data-slug="ialomita" data-name="Ialomița" d="M730.2,529.4L737.4,530.3L737.8,532.2L741.0,535.3L744.2,529.9L746.5,531.5L749.8,527.3L754.2,531.5L755.2,530.2L756.9,531.8L760.0,527.8L764.4,531.4L776.4,530.2L790.1,532.7L790.3,531.0L792.6,530.8L790.9,527.4L795.7,527.2L797.0,524.6L801.3,524.6L800.7,528.1L802.1,531.0L805.8,531.4L807.1,533.3L806.1,539.0L807.0,541.5L812.5,546.1L815.3,545.9L822.9,554.0L823.2,556.4L821.4,563.5L825.4,572.1L829.2,575.1L831.2,582.4L822.7,593.5L821.6,597.8L804.3,591.6L802.1,596.7L799.9,598.6L797.4,595.5L795.5,597.1L793.0,594.4L793.8,593.8L792.7,591.4L795.3,589.4L791.4,587.7L791.2,585.7L783.0,585.4L783.5,582.3L781.4,577.8L774.1,578.3L774.3,564.4L771.6,563.9L771.5,567.0L769.4,566.7L768.6,573.8L766.9,574.3L754.9,574.0L755.0,572.5L751.1,570.7L750.3,575.5L744.2,574.9L744.5,572.8L742.1,572.4L741.6,575.0L737.9,574.3L737.6,571.3L735.5,571.0L735.6,575.8L728.5,573.2L728.1,576.0L723.4,575.6L723.4,572.0L714.1,572.0L714.1,569.0L702.4,570.9L695.7,569.1L695.0,571.6L693.7,570.1L692.1,571.7L690.3,570.2L691.1,567.0L688.3,565.7L687.7,569.0L684.3,567.6L684.6,564.4L680.1,563.4L679.4,562.0L680.2,559.5L678.2,558.8L675.1,567.0L671.2,569.9L667.4,569.3L663.1,564.5L661.5,564.9L658.4,562.3L653.9,565.9L656.3,567.2L651.8,570.1L650.2,568.3L646.7,568.0L644.6,565.4L647.9,560.8L647.0,559.8L650.3,556.5L649.8,554.3L647.6,554.9L644.5,547.6L643.1,546.8L643.9,544.8L645.9,544.7L647.0,543.1L646.1,542.1L647.4,539.8L639.7,532.4L641.9,529.7L646.2,530.7L647.3,533.5L648.6,533.4L655.7,526.0L660.0,529.0L664.3,524.4L663.4,523.5L671.9,519.0L674.6,525.6L676.2,524.4L679.5,526.2L683.4,524.7L683.9,526.3L690.0,525.3L693.6,528.4L695.7,528.0L697.4,525.3L699.5,526.7L700.9,524.5L710.9,529.4L714.5,523.9L719.7,528.0L725.5,530.4L724.1,536.1L727.9,537.5L728.5,536.0L733.2,537.7L734.3,534.9L730.0,533.0L730.2,529.4Z"></path>
<path class="fhm-jud" data-slug="ilfov" data-name="Ilfov" d="M639.7,532.4L647.4,539.8L646.1,542.1L647.0,543.1L645.9,544.7L643.9,544.8L643.1,546.8L644.5,547.6L647.6,554.9L649.8,554.3L650.3,556.5L647.0,559.8L647.9,560.8L644.6,565.4L646.7,568.0L650.2,568.3L651.8,570.1L645.9,575.5L649.6,579.9L655.6,579.1L656.8,580.5L642.0,589.2L638.7,586.0L638.1,587.8L639.4,590.1L640.9,590.1L641.2,593.0L640.1,596.1L637.5,596.4L634.5,599.2L636.8,601.3L634.7,604.1L635.3,604.6L628.5,610.5L627.9,612.7L626.4,611.8L623.6,614.0L617.1,610.3L617.0,608.8L614.1,609.0L607.9,603.9L607.2,601.4L602.6,601.3L602.9,599.5L601.1,598.4L598.0,598.7L595.7,595.0L593.9,595.2L592.8,590.7L589.6,590.1L589.1,588.8L593.9,585.7L591.5,583.8L593.5,582.0L593.9,579.5L597.2,580.5L598.5,577.4L596.7,575.5L599.4,570.9L594.6,563.4L595.8,561.1L597.7,563.7L606.9,556.3L605.9,553.8L601.3,551.1L601.6,549.3L604.2,549.2L604.8,546.7L603.3,545.4L606.6,544.2L605.1,542.9L604.8,537.2L610.2,536.1L613.9,537.0L615.4,535.1L617.1,536.6L618.0,536.3L617.1,533.7L618.5,532.7L621.8,535.3L624.0,534.0L634.9,536.5L635.1,534.1L636.5,534.4L636.7,532.4L639.7,532.4ZM615.4,566.9L605.9,573.8L605.1,578.4L609.1,580.5L608.9,581.8L603.6,582.6L605.1,587.5L608.9,587.5L612.4,591.7L619.5,593.7L622.5,598.2L624.0,598.4L624.9,596.6L622.9,592.7L624.7,588.7L629.0,589.3L632.4,583.0L626.1,581.8L626.2,580.3L624.4,579.7L627.4,576.5L619.9,575.2L618.7,573.1L618.7,567.3L615.4,566.9Z"></path>
<path class="fhm-jud" data-slug="maramures" data-name="Maramureș" d="M496.2,81.3L497.6,84.9L504.1,90.9L507.2,92.0L507.4,94.7L497.4,98.6L497.7,101.5L491.1,100.6L488.3,101.9L483.4,101.6L481.4,106.1L479.3,104.6L471.7,105.2L469.0,107.3L465.0,107.4L465.0,106.0L462.8,104.6L457.5,105.4L456.4,106.7L436.8,99.7L432.5,106.0L428.0,104.2L427.8,107.3L425.3,109.9L424.2,113.6L422.5,113.3L421.6,115.9L415.1,115.1L412.1,115.8L410.8,118.2L409.8,117.1L408.4,119.5L409.4,121.9L407.3,127.6L403.4,130.3L402.2,134.8L398.2,137.2L392.6,136.7L387.6,138.7L384.5,138.1L382.4,135.9L380.2,136.3L378.6,139.1L379.0,140.6L370.4,141.3L370.4,142.7L367.0,143.5L360.5,136.7L358.3,132.5L354.6,133.4L355.1,135.1L351.8,135.7L351.2,137.2L342.1,136.6L340.9,134.8L330.7,133.4L328.2,131.4L327.8,129.0L325.5,129.6L322.9,127.8L317.9,127.6L316.1,125.9L312.7,126.1L309.1,122.7L306.6,125.3L298.2,124.6L294.5,126.5L293.6,129.1L292.4,127.0L286.1,125.5L286.2,122.9L288.1,122.2L285.8,119.5L286.0,118.3L294.7,118.2L295.5,107.7L302.8,98.8L305.0,97.3L307.5,102.0L314.2,108.0L317.1,108.6L317.5,103.9L319.7,104.5L320.5,102.7L320.3,96.4L322.1,96.8L325.9,94.3L325.3,93.0L330.8,87.7L328.4,87.8L328.2,85.9L314.2,79.7L314.8,78.0L313.7,75.6L317.6,70.9L322.6,72.6L322.8,74.3L331.0,73.7L333.8,75.4L339.1,75.5L339.9,73.7L349.2,69.9L352.8,63.0L356.4,62.4L357.7,60.7L356.4,57.3L352.4,55.4L349.5,48.6L347.4,49.0L342.2,44.9L345.6,39.3L347.5,38.7L354.5,38.8L360.1,42.4L371.7,40.8L376.3,42.7L380.0,49.6L381.8,50.4L383.6,48.5L389.7,47.9L391.3,45.4L393.7,46.2L396.8,45.0L399.2,47.7L402.4,47.1L406.3,49.7L407.8,53.0L416.7,52.8L420.0,55.8L430.3,51.3L432.9,52.9L436.3,51.2L437.4,47.2L442.0,44.5L449.0,47.3L455.5,44.8L457.6,45.4L459.6,48.3L461.9,47.4L463.1,51.5L467.2,55.8L466.4,58.8L467.1,60.9L470.3,62.5L470.6,64.4L473.6,63.8L475.6,66.0L478.3,64.8L478.9,66.9L483.5,67.4L482.9,69.5L484.5,71.5L484.5,73.6L488.9,77.7L489.4,82.0L496.2,81.3Z"></path>
<path class="fhm-jud" data-slug="mehedinti" data-name="Mehedinți" d="M253.4,480.7L256.4,481.0L258.5,486.7L262.9,484.6L263.1,486.9L265.3,489.5L272.0,493.6L272.6,495.5L274.6,496.8L274.2,498.4L278.4,497.8L278.2,501.2L276.2,505.2L278.8,514.8L278.9,521.2L280.5,524.1L282.8,525.4L283.6,530.2L285.7,528.4L289.0,530.5L290.6,536.3L296.8,538.8L296.5,541.1L302.0,544.9L310.4,543.8L309.7,546.0L321.0,547.3L326.2,553.0L333.5,556.5L332.5,559.5L333.9,561.4L338.1,562.8L337.7,565.4L335.3,568.1L327.9,566.8L325.5,569.7L323.5,567.3L318.0,568.8L319.9,571.0L319.5,573.1L315.7,574.1L316.0,576.1L314.8,577.3L311.0,578.2L311.6,583.1L310.8,586.5L316.2,590.9L313.5,591.1L309.9,594.5L310.3,595.8L308.5,600.1L303.7,601.4L301.4,608.2L299.8,609.5L299.8,615.6L301.7,616.4L299.9,619.2L302.3,620.7L301.5,626.7L290.4,625.4L290.4,628.3L286.3,634.5L282.0,634.0L270.0,626.1L263.6,619.6L257.5,618.4L255.3,616.5L256.5,609.1L255.1,606.3L243.6,603.0L239.4,597.8L237.3,591.6L237.0,586.0L233.1,581.8L232.2,577.9L234.1,576.3L239.2,577.6L242.0,576.1L243.5,568.3L245.6,565.9L249.1,565.4L256.4,570.3L259.3,570.4L264.8,567.2L264.6,565.0L258.7,557.6L254.7,555.2L249.7,555.9L243.9,552.1L235.1,541.6L232.8,540.6L229.5,541.3L223.7,546.8L219.0,546.7L216.0,550.0L215.7,552.2L212.9,554.2L211.9,558.7L208.3,564.0L203.4,575.8L201.0,577.6L197.1,577.1L192.2,572.5L191.5,569.9L187.9,567.0L186.8,564.3L186.9,560.7L185.6,558.2L187.0,557.2L190.3,556.6L192.0,554.8L193.5,555.2L196.3,559.4L198.2,558.2L199.5,560.1L202.7,554.3L202.1,550.7L198.6,548.9L200.6,538.3L201.6,536.6L203.5,536.6L205.5,533.5L205.0,529.1L206.7,525.0L209.7,526.5L211.8,530.0L220.1,531.6L222.4,536.0L224.5,536.0L225.0,534.1L228.2,534.3L228.8,527.5L235.4,515.1L235.0,511.3L236.2,510.9L236.3,509.0L235.3,507.5L236.1,505.4L238.4,504.2L238.0,502.3L236.0,501.2L253.4,480.7Z"></path>
<path class="fhm-jud" data-slug="mures" data-name="Mureș" d="M527.9,177.5L526.3,183.0L530.5,188.0L529.9,190.7L532.4,193.5L531.8,199.5L530.5,200.6L529.6,205.7L531.1,208.1L528.5,216.6L531.8,217.6L532.1,222.6L534.9,225.0L535.5,227.5L532.4,230.1L529.5,230.5L529.3,234.0L533.0,239.9L531.6,242.4L526.9,242.8L527.0,245.9L525.4,247.4L525.2,249.5L522.8,249.3L517.8,256.8L513.3,256.0L511.1,256.9L509.1,260.1L504.2,262.3L500.8,268.6L504.4,271.9L503.7,274.1L501.4,274.2L499.7,277.1L496.2,277.2L496.5,278.7L495.1,280.4L495.1,282.5L497.5,283.3L499.6,286.2L496.4,287.7L492.1,285.3L488.8,286.7L489.6,289.4L487.0,290.7L488.0,293.0L487.2,297.4L494.5,303.7L495.8,307.8L497.1,306.8L500.3,308.6L502.3,306.9L505.8,308.2L509.2,307.4L509.9,309.4L512.4,309.4L516.7,317.3L520.1,319.3L515.4,322.5L510.2,322.0L507.2,324.4L503.9,323.2L497.3,327.7L496.1,332.7L493.1,332.7L491.2,330.7L491.2,328.6L487.3,327.9L482.5,330.4L474.0,331.2L471.7,333.1L467.1,329.1L467.6,325.4L466.7,323.7L467.9,322.2L467.3,319.1L468.2,316.9L466.1,309.0L467.4,306.3L466.1,301.9L462.8,303.5L462.0,306.3L459.8,306.4L458.9,303.8L456.1,304.2L455.5,305.5L453.0,305.1L452.5,306.6L450.5,306.1L449.3,307.4L447.6,305.3L440.6,304.6L436.0,307.7L433.3,306.0L427.5,305.9L426.5,301.5L424.7,302.7L423.8,306.2L422.2,306.7L416.3,301.8L414.4,303.4L413.0,302.2L412.7,300.4L411.4,299.7L411.5,294.8L409.6,293.4L401.2,292.5L394.7,286.9L399.5,282.9L399.2,276.9L395.7,279.5L394.3,279.1L396.3,277.4L392.4,272.7L393.0,271.4L391.5,266.4L394.3,262.3L398.7,263.7L400.6,261.7L399.8,259.9L401.4,259.2L402.6,251.9L398.6,250.7L398.0,249.1L399.4,246.5L406.7,244.0L409.0,238.1L405.3,236.4L403.0,232.9L405.6,230.4L409.2,231.0L408.1,227.6L413.8,225.6L415.7,223.9L414.8,222.1L427.7,230.0L431.6,229.3L434.0,231.0L438.1,230.3L439.8,226.9L443.7,228.1L445.8,225.5L443.6,224.6L444.4,220.0L451.5,214.8L452.5,211.6L451.2,207.9L457.7,205.3L458.8,200.7L462.1,199.5L465.6,206.1L472.6,207.1L474.9,205.1L472.4,202.3L474.3,199.5L474.3,195.3L477.2,192.2L479.3,185.8L488.0,176.4L490.9,175.8L494.4,177.9L496.6,174.3L503.7,175.3L506.3,172.2L508.5,171.6L511.8,174.0L515.1,173.7L517.1,175.1L519.2,172.7L521.1,172.9L527.9,177.5Z"></path>
<path class="fhm-jud" data-slug="neamt" data-name="Neamț" d="M654.0,142.6L666.9,155.8L668.5,159.3L670.9,160.4L673.1,164.7L671.6,166.2L672.3,168.0L671.4,168.8L672.8,170.5L672.9,175.7L675.2,178.3L680.1,175.3L684.6,179.4L688.2,177.5L693.8,182.1L696.1,185.9L700.8,183.6L703.4,188.1L709.6,185.4L710.7,180.7L712.0,180.6L714.0,186.4L716.1,187.3L717.3,183.8L719.2,182.8L720.1,179.5L724.0,178.4L730.2,179.8L733.2,183.1L732.5,186.2L733.5,187.8L739.2,190.6L738.0,195.8L736.7,196.4L732.8,194.1L732.0,196.1L729.5,198.3L727.9,198.0L726.6,199.9L731.9,203.7L735.0,208.5L734.2,212.4L737.0,215.5L735.7,216.8L737.2,218.1L736.3,224.5L738.5,226.4L733.7,228.8L733.4,230.6L731.0,230.6L730.7,232.9L725.9,230.7L724.6,227.7L720.6,229.1L717.9,227.4L714.8,227.6L709.8,229.9L708.1,229.2L706.7,225.1L704.6,225.5L704.3,223.8L702.7,223.5L704.7,221.3L704.1,218.7L701.2,218.7L701.3,220.5L697.8,222.2L697.8,225.9L694.8,227.0L697.0,230.3L691.1,235.5L688.2,232.5L687.7,229.5L685.2,230.6L685.5,228.5L679.4,227.8L679.4,232.6L672.2,236.2L668.2,241.4L661.4,239.0L658.1,241.4L652.1,240.9L649.1,245.7L644.4,245.6L643.7,244.2L639.7,245.2L637.9,241.1L635.7,239.2L635.9,237.6L630.9,241.2L630.7,244.8L624.6,247.0L623.4,244.6L617.9,246.0L616.2,244.5L614.9,236.3L612.1,236.0L609.1,239.0L607.1,238.3L605.4,239.9L605.2,238.6L598.0,237.9L595.8,240.7L598.1,244.8L593.6,245.7L585.9,237.3L585.2,234.5L588.3,230.6L587.4,222.9L590.5,220.2L585.9,217.8L587.1,216.7L585.3,215.2L584.4,217.6L582.6,215.8L584.6,213.4L582.8,209.9L586.7,205.2L586.7,203.6L592.5,204.5L590.7,198.1L588.7,195.9L587.2,197.7L585.7,195.3L585.5,192.9L583.3,189.8L583.3,187.0L581.1,185.2L579.6,181.2L571.9,178.4L572.3,174.3L575.7,170.6L575.0,168.8L576.2,166.1L578.1,165.8L577.7,162.6L579.0,161.4L579.2,159.3L580.7,157.2L585.2,156.2L588.0,152.6L583.3,144.4L590.3,144.9L595.1,148.9L595.6,151.1L599.7,152.9L600.6,150.2L605.3,148.4L609.7,148.4L613.7,150.6L621.1,147.0L626.1,147.2L627.4,145.6L634.5,149.8L650.7,140.6L654.0,142.6Z"></path>
<path class="fhm-jud" data-slug="olt" data-name="Olt" d="M442.2,520.7L440.5,523.5L443.3,525.5L446.7,524.3L449.9,520.5L449.8,517.6L451.4,513.3L453.1,513.8L454.8,522.9L457.0,527.8L458.2,528.0L458.5,535.3L460.1,534.7L462.7,537.9L468.2,537.1L471.7,540.1L468.8,542.5L471.4,555.1L471.1,560.8L473.0,562.4L473.1,565.2L474.5,567.6L472.9,574.5L473.7,574.6L473.6,578.7L475.8,578.7L475.8,583.3L474.7,585.1L475.8,589.9L479.1,588.9L489.1,589.5L489.5,591.3L489.2,593.4L482.4,594.5L485.3,601.8L483.9,602.4L482.9,606.4L483.7,608.0L483.2,612.4L484.5,615.1L479.9,620.4L481.1,625.2L485.2,629.2L486.3,635.0L471.2,640.6L472.1,643.7L460.8,647.4L458.5,655.9L462.8,655.4L463.0,658.0L461.5,659.6L461.8,660.9L463.6,660.8L466.7,669.9L469.4,669.4L472.5,674.6L471.7,675.6L474.6,676.7L474.0,679.6L475.1,681.2L469.4,682.8L465.4,691.7L461.8,688.8L450.1,685.7L439.1,689.6L432.7,695.7L414.2,697.9L407.7,695.3L409.5,683.9L412.3,677.9L416.2,678.4L416.9,671.2L419.9,672.2L420.6,667.3L419.9,667.1L422.1,660.2L419.5,658.5L420.4,655.4L422.5,656.1L423.4,653.5L423.9,649.7L414.3,648.6L417.1,635.6L424.5,636.0L424.5,633.1L418.3,632.8L420.7,623.5L418.3,623.1L420.1,616.8L418.3,616.2L417.7,613.7L413.8,613.7L414.3,611.3L411.3,609.4L407.7,608.9L407.3,603.7L405.5,603.9L403.2,598.8L400.3,596.3L400.6,593.4L391.4,591.4L392.5,587.0L390.7,586.1L383.3,585.1L385.0,579.8L381.4,578.0L385.7,573.5L384.2,572.1L389.4,568.0L398.6,568.8L404.0,574.8L408.3,567.6L412.3,564.4L415.4,566.4L416.8,565.1L423.2,565.9L423.3,558.1L425.6,557.8L426.3,563.3L430.3,564.1L430.2,556.1L425.5,541.7L425.8,535.3L424.9,532.4L427.3,532.0L429.4,528.8L429.6,521.6L432.0,519.5L431.1,517.8L434.8,516.7L437.2,512.2L440.8,513.9L440.0,519.2L442.2,520.7Z"></path>
<path class="fhm-jud" data-slug="prahova" data-name="Prahova" d="M615.4,420.0L617.5,423.4L622.5,426.2L623.7,428.6L623.1,434.9L625.2,436.0L624.0,439.7L632.5,449.3L627.4,454.7L630.8,454.9L632.2,458.9L631.7,459.9L634.3,464.8L636.1,465.8L643.1,464.0L645.6,464.7L644.4,467.3L645.1,472.1L647.7,473.0L649.8,470.0L652.4,470.5L656.5,467.0L657.5,475.4L655.4,477.9L656.0,483.2L655.0,486.0L656.8,486.5L659.9,496.4L663.9,494.9L671.3,503.9L664.2,506.4L664.6,509.9L667.2,511.1L669.7,515.1L670.6,514.5L672.2,516.7L671.9,519.0L663.4,523.5L664.3,524.4L660.0,529.0L655.7,526.0L648.6,533.4L647.3,533.5L646.2,530.7L641.9,529.7L639.7,532.4L636.7,532.4L636.5,534.4L635.1,534.1L634.9,536.5L624.0,534.0L621.8,535.3L618.5,532.7L617.1,533.7L618.0,536.3L617.1,536.6L615.4,535.1L613.9,537.0L610.2,536.1L604.8,537.2L604.4,539.7L602.6,540.4L603.3,543.6L600.9,544.0L598.0,537.7L601.4,534.1L599.8,533.3L599.0,530.4L594.3,523.7L592.3,523.0L591.0,526.1L584.1,523.9L583.8,522.0L586.8,519.7L586.9,517.4L588.0,516.3L587.4,513.7L589.0,511.9L587.7,509.0L586.8,509.2L585.2,504.3L580.8,506.0L574.7,505.2L573.6,502.7L574.2,500.4L573.4,495.7L574.5,492.7L576.1,491.8L576.1,490.3L572.9,484.4L569.6,483.2L567.9,480.9L564.7,475.3L565.2,474.7L561.7,471.0L560.9,467.8L558.4,468.5L558.9,466.1L556.7,461.8L560.5,456.0L555.1,448.7L553.5,449.2L551.9,447.2L551.7,441.3L553.1,437.0L551.6,434.6L551.9,432.2L549.6,430.0L550.6,428.0L553.2,427.7L554.6,425.9L558.1,427.2L565.6,426.6L566.2,424.5L568.5,422.5L574.0,420.9L578.7,426.2L582.9,426.2L585.3,423.9L587.6,425.9L589.6,431.7L592.5,432.1L595.8,429.3L596.2,422.9L599.5,417.6L603.7,419.4L607.3,418.9L612.1,424.3L614.7,423.2L615.4,420.0Z"></path>
<path class="fhm-jud" data-slug="salaj" data-name="Sălaj" d="M379.0,140.6L374.5,149.5L376.0,151.6L375.6,154.1L370.6,149.2L369.6,155.5L365.6,154.3L360.0,156.3L356.3,162.9L357.0,164.6L353.6,167.3L350.7,164.9L348.5,165.4L347.2,168.1L342.6,168.8L343.0,174.6L341.8,174.5L341.3,178.5L335.6,179.5L337.6,182.7L340.0,184.0L340.1,189.9L330.7,195.9L329.7,197.6L330.5,200.1L325.8,206.3L324.3,205.5L320.6,208.0L319.1,207.4L317.0,204.9L317.3,202.4L315.0,200.4L312.7,201.6L313.9,202.8L311.5,204.0L313.3,208.7L310.2,212.2L308.5,210.8L302.1,214.3L298.7,212.6L299.6,209.1L298.3,207.9L296.3,207.4L294.9,209.0L293.2,207.4L291.3,208.0L283.3,205.2L278.9,201.0L279.2,197.1L278.4,196.1L272.0,193.3L268.1,195.9L261.7,191.2L259.1,190.8L256.6,184.6L246.7,182.6L241.7,179.0L238.8,175.8L242.9,174.7L242.6,170.8L240.5,169.6L241.1,167.8L238.0,167.0L236.2,164.1L238.1,162.6L237.5,160.5L239.8,158.9L238.7,157.0L243.5,154.6L241.8,149.6L242.3,146.7L245.1,145.9L248.8,141.4L251.2,140.6L250.6,139.1L252.3,135.4L266.4,129.0L268.9,129.7L269.8,131.5L272.2,128.7L281.0,129.4L282.7,134.3L287.4,138.8L290.9,136.5L292.0,138.0L299.1,137.0L300.9,135.5L299.4,133.8L301.3,132.1L302.3,127.6L300.8,125.2L306.6,125.3L309.1,122.7L312.7,126.1L316.1,125.9L317.9,127.6L322.9,127.8L325.5,129.6L327.8,129.0L328.2,131.4L330.7,133.4L340.9,134.8L342.1,136.6L351.2,137.2L351.8,135.7L355.1,135.1L354.6,133.4L358.3,132.5L360.5,136.7L367.0,143.5L370.4,142.7L370.4,141.3L379.0,140.6Z"></path>
<path class="fhm-jud" data-slug="satu-mare" data-name="Satu Mare" d="M342.2,44.9L347.4,49.0L349.5,48.6L352.4,55.4L356.4,57.3L357.7,60.7L356.4,62.4L352.8,63.0L349.2,69.9L339.9,73.7L339.1,75.5L333.8,75.4L331.0,73.7L322.8,74.3L322.6,72.6L317.6,70.9L313.7,75.6L314.8,78.0L314.2,79.7L315.5,81.1L326.5,84.9L328.2,85.9L328.4,87.8L330.8,87.7L325.3,93.0L325.9,94.3L322.1,96.8L320.3,96.4L320.5,102.7L319.7,104.5L317.5,103.9L317.1,108.6L314.2,108.0L307.5,102.0L305.0,97.3L295.5,107.7L294.7,118.2L286.0,118.3L285.8,119.5L288.1,122.2L286.2,122.9L286.1,125.5L292.4,127.0L293.6,129.1L294.5,126.5L298.2,124.6L300.8,125.2L302.3,127.6L301.3,132.1L299.4,133.8L300.9,135.5L299.1,137.0L292.0,138.0L290.9,136.5L287.4,138.8L282.7,134.3L281.0,129.4L272.2,128.7L269.8,131.5L268.9,129.7L266.4,129.0L252.3,135.4L250.6,139.1L251.2,140.6L248.8,141.4L243.2,134.4L243.9,132.6L240.6,131.5L240.2,128.9L233.7,128.0L232.6,126.6L229.4,128.0L227.1,126.3L222.0,127.1L220.0,123.0L220.0,117.7L214.4,115.2L214.2,110.9L210.9,110.1L211.0,106.0L208.9,106.3L208.2,103.7L203.0,100.9L205.4,92.6L207.3,91.8L208.4,86.7L211.4,85.9L211.9,81.0L214.1,81.3L217.5,79.1L218.9,75.8L221.7,78.3L229.0,78.1L231.4,70.0L235.7,69.6L242.1,74.7L248.7,74.8L256.0,72.4L260.1,64.7L264.0,65.2L266.0,64.0L265.8,60.9L264.6,60.3L264.8,56.4L267.9,56.6L273.6,54.0L277.9,47.4L284.0,44.7L283.1,40.2L281.7,39.7L282.1,37.1L287.5,38.5L291.3,41.5L293.1,40.0L299.5,39.2L299.7,36.6L301.4,34.2L300.2,33.3L301.7,31.8L301.2,30.3L303.7,25.4L308.6,21.8L309.9,25.1L316.0,26.0L316.5,24.7L318.2,24.7L318.3,26.8L320.3,28.5L320.0,32.3L323.0,33.2L325.1,34.9L325.7,37.3L342.2,44.9Z"></path>
<path class="fhm-jud" data-slug="sibiu" data-name="Sibiu" d="M496.1,332.7L497.8,334.8L496.0,337.0L490.9,338.5L488.6,340.2L487.5,343.3L482.7,343.9L484.7,346.8L484.4,348.2L477.3,348.5L477.5,350.6L475.4,353.6L470.4,353.9L471.6,360.7L477.6,364.9L478.0,367.6L477.3,369.3L473.6,369.8L471.0,372.7L468.9,370.0L463.5,376.0L464.3,380.7L468.0,388.7L468.2,395.0L466.8,399.6L468.4,405.1L467.1,406.5L464.1,405.1L459.0,406.3L455.8,408.9L454.5,407.6L451.6,408.8L450.2,407.7L446.8,409.9L446.4,408.5L443.1,407.1L441.8,408.5L430.2,409.3L423.1,414.4L420.1,413.8L417.4,417.4L414.1,418.8L404.6,419.1L397.0,416.1L387.6,415.5L381.8,417.1L380.8,415.6L373.6,416.7L371.6,419.4L360.3,422.0L357.4,414.2L355.7,412.6L355.6,409.4L358.6,406.6L356.9,402.6L358.2,399.6L352.5,394.0L354.1,392.5L352.3,390.1L355.4,385.2L355.2,383.6L356.4,382.4L358.3,383.5L359.7,380.8L355.8,377.8L356.3,374.1L363.5,374.0L363.4,371.4L367.3,370.4L369.1,365.8L371.8,362.9L367.2,360.5L367.2,358.5L369.3,356.6L376.4,356.5L381.1,348.3L379.9,343.0L384.3,338.1L392.4,339.6L396.6,342.3L399.3,338.6L398.7,335.3L403.6,330.6L405.3,327.1L408.9,324.0L411.9,324.2L418.8,320.1L417.9,318.0L416.4,317.8L415.8,315.6L416.9,312.3L416.0,310.7L422.2,308.0L420.5,307.1L420.3,305.2L422.2,306.7L423.8,306.2L424.7,302.7L426.5,301.5L427.5,305.9L433.3,306.0L436.0,307.7L440.6,304.6L447.6,305.3L449.3,307.4L450.5,306.1L452.5,306.6L453.0,305.1L455.5,305.5L456.1,304.2L458.9,303.8L459.8,306.4L462.0,306.3L462.8,303.5L466.1,301.9L467.4,306.3L466.1,309.0L468.2,316.9L467.3,319.1L467.9,322.2L466.7,323.7L467.6,325.4L467.1,329.1L469.6,332.1L471.7,333.1L474.0,331.2L482.5,330.4L487.3,327.9L491.2,328.6L491.2,330.7L493.1,332.7L496.1,332.7Z"></path>
<path class="fhm-jud" data-slug="suceava" data-name="Suceava" d="M682.0,120.6L679.8,122.8L679.8,125.4L682.0,128.4L676.4,131.3L679.2,134.4L677.8,136.0L679.1,137.8L672.3,138.3L668.3,135.1L668.2,133.1L664.2,133.0L663.6,130.7L660.0,132.6L661.5,135.7L660.6,137.3L661.9,141.3L663.2,141.2L666.3,145.3L668.6,145.7L667.4,147.9L665.9,146.5L661.6,151.0L654.0,142.6L650.7,140.6L634.5,149.8L627.4,145.6L626.1,147.2L621.1,147.0L613.7,150.6L609.7,148.4L605.3,148.4L600.6,150.2L599.7,152.9L595.6,151.1L595.1,148.9L590.3,144.9L585.9,143.7L583.3,144.4L588.0,152.6L585.2,156.2L580.7,157.2L579.2,159.3L579.0,161.4L577.7,162.6L578.1,165.8L576.2,166.1L575.0,168.8L575.7,170.6L572.3,174.3L571.9,178.4L567.9,177.9L565.5,180.6L558.5,179.7L557.6,176.4L550.6,170.6L546.9,166.3L546.9,164.4L534.4,167.1L533.0,168.6L532.2,172.2L533.1,174.8L531.4,176.6L526.5,177.4L521.1,172.9L519.2,172.7L517.1,175.1L515.1,173.7L511.8,174.0L508.5,171.6L508.0,169.2L508.9,167.1L506.8,158.7L510.2,153.2L504.8,148.7L510.2,144.5L510.0,140.5L508.2,138.5L509.1,136.2L505.5,133.8L501.7,128.4L504.4,126.0L507.2,128.7L507.4,126.7L511.1,124.2L508.8,123.8L506.8,119.1L511.6,115.9L511.7,114.4L506.5,107.1L502.3,105.6L497.7,101.5L497.4,98.6L507.4,94.7L507.2,92.0L504.1,90.9L497.6,84.9L496.2,81.3L501.4,81.9L502.5,80.5L506.1,81.9L507.5,79.1L514.1,77.4L514.1,75.4L517.6,71.7L519.3,71.9L519.5,69.2L523.2,64.4L523.1,63.0L525.3,61.6L525.6,57.9L527.0,56.0L530.3,56.4L534.7,53.1L564.6,49.4L568.1,47.8L583.9,49.3L593.0,44.6L596.3,45.9L598.0,45.4L598.7,43.5L602.7,44.5L614.2,41.8L618.2,43.3L621.4,46.9L621.1,50.3L625.0,50.9L628.1,54.0L627.3,56.4L630.3,57.0L632.0,55.2L636.7,59.0L636.2,59.9L637.7,61.9L639.9,62.0L639.6,65.1L641.3,66.5L642.1,69.3L647.5,74.5L650.0,73.1L650.4,76.2L649.5,78.6L650.3,79.5L652.4,78.5L655.0,80.6L661.8,93.1L664.6,93.6L664.7,98.2L665.8,98.4L665.2,103.7L667.1,105.1L668.0,108.8L671.8,111.2L671.8,113.1L666.3,114.8L670.2,117.7L670.1,121.2L682.0,120.6Z"></path>
<path class="fhm-jud" data-slug="teleorman" data-name="Teleorman" d="M552.7,580.7L550.5,585.4L546.9,589.1L551.7,592.7L552.3,595.7L551.4,600.0L555.8,601.7L560.2,601.0L562.3,602.6L565.7,600.7L567.6,601.5L568.7,602.8L567.3,605.1L570.7,607.7L571.3,604.3L572.7,605.0L572.5,608.4L575.5,611.5L572.4,617.3L571.2,623.8L576.3,625.1L573.6,625.6L573.7,630.3L576.7,628.9L576.5,632.9L571.6,632.1L569.5,634.2L570.3,635.1L568.0,636.5L567.0,639.7L568.4,641.7L565.3,643.8L564.7,647.5L565.8,651.0L564.5,651.9L567.3,656.2L567.3,659.1L563.8,659.0L563.7,663.8L566.9,664.2L566.1,673.3L568.5,673.3L568.5,676.9L571.7,676.9L571.7,683.3L572.5,684.1L570.8,687.7L571.7,688.2L572.0,692.4L573.6,692.0L573.0,696.6L562.3,703.3L555.7,703.4L543.1,707.6L537.8,705.7L528.5,697.9L519.5,695.3L513.6,697.6L507.4,696.4L501.6,691.1L496.2,690.8L489.0,694.2L483.1,693.2L473.6,697.5L465.4,691.7L469.4,682.8L475.1,681.2L474.0,679.6L474.6,676.7L471.7,675.6L472.5,674.6L469.4,669.4L466.7,669.9L463.6,660.8L461.8,660.9L461.5,659.6L463.0,658.0L462.8,655.4L458.5,655.9L460.8,647.4L472.1,643.7L471.2,640.6L486.3,635.0L485.2,629.2L481.1,625.2L479.9,620.4L484.5,615.1L483.2,612.4L483.7,608.0L482.9,606.4L483.9,602.4L485.3,601.8L482.4,594.5L489.2,593.4L489.5,591.3L499.3,591.2L502.9,586.9L508.7,589.0L523.3,580.0L528.3,588.1L533.9,584.9L533.3,584.0L535.9,582.4L538.0,578.7L539.5,579.5L540.9,573.8L543.6,570.6L549.4,574.7L547.2,577.4L552.7,580.7Z"></path>
<path class="fhm-jud" data-slug="timis" data-name="Timiș" d="M46.7,320.3L49.1,322.7L53.9,323.0L54.8,325.8L56.5,326.3L57.1,328.4L60.1,330.9L66.1,332.0L68.4,333.7L71.7,339.1L85.2,338.7L85.8,342.9L89.6,348.3L96.1,344.9L103.0,349.1L103.1,346.7L105.7,345.6L108.1,341.7L116.9,346.2L125.6,340.3L124.1,338.2L128.5,335.1L132.6,334.4L134.8,339.8L133.5,343.2L145.9,348.8L144.7,353.2L146.7,352.8L148.6,355.9L148.7,359.1L151.3,357.5L154.5,348.3L156.6,348.1L160.1,352.8L159.4,357.4L162.6,356.2L165.1,350.5L168.1,352.8L170.5,351.3L172.6,352.0L175.0,350.4L175.4,347.9L180.5,345.7L182.6,346.6L183.7,349.7L190.9,350.8L197.2,354.5L197.3,355.9L205.4,356.8L207.4,359.5L209.7,359.6L211.4,354.8L215.9,355.2L218.1,349.1L221.2,348.9L228.2,354.4L227.2,358.9L224.9,360.4L224.6,362.3L227.1,365.6L229.4,365.5L234.1,371.2L234.6,374.1L233.7,375.0L234.8,377.3L236.9,377.5L240.7,375.1L242.3,378.5L237.5,383.9L233.6,385.8L233.5,391.5L230.1,393.2L228.3,396.0L217.9,396.3L214.7,405.0L212.4,408.0L210.9,407.8L209.0,405.0L206.0,404.9L203.8,403.0L202.1,405.1L195.2,406.5L191.7,410.0L188.7,407.0L187.8,407.7L189.1,409.7L188.9,413.4L191.6,411.0L195.3,415.5L190.4,416.7L189.2,418.1L189.4,419.5L187.5,420.7L181.2,419.1L178.1,420.1L176.5,414.9L172.4,414.0L171.3,415.4L166.8,415.4L166.0,416.6L161.4,415.9L157.1,414.2L154.7,411.4L152.1,411.3L149.4,407.9L144.4,410.6L141.5,410.1L141.3,412.3L139.1,414.2L138.6,417.6L139.4,420.1L133.9,424.0L132.1,424.4L130.9,422.8L125.8,425.8L123.9,425.4L123.7,427.8L126.1,428.0L126.3,429.6L129.3,430.9L129.7,433.3L124.6,435.1L125.6,440.9L127.1,442.5L125.9,443.5L127.9,445.9L130.2,444.9L133.6,446.7L134.3,449.1L137.3,449.0L137.8,453.6L134.6,456.9L133.2,459.9L133.7,461.9L130.8,467.3L124.4,466.3L120.6,462.4L119.8,463.8L116.1,463.3L108.9,460.2L107.1,462.2L99.4,456.7L100.0,455.2L98.2,453.4L97.4,448.3L95.1,447.6L93.2,450.7L88.1,452.0L86.5,448.7L84.4,449.0L84.7,446.6L79.7,447.7L78.9,445.1L73.7,441.3L69.5,433.6L63.6,431.4L64.6,430.5L64.5,427.8L63.1,426.2L60.2,424.0L53.7,424.0L54.3,422.3L53.4,420.9L60.2,415.5L56.2,407.6L53.7,408.3L53.1,403.8L57.3,397.0L56.3,392.5L57.0,384.7L58.6,382.6L59.2,379.0L55.0,377.4L54.0,382.2L46.2,382.8L44.2,375.7L42.2,376.1L40.9,373.5L41.9,370.8L36.8,365.5L33.6,364.7L32.3,358.5L26.6,361.2L23.1,351.9L19.4,349.3L14.9,350.1L8.9,344.8L9.9,343.9L8.0,339.3L8.6,337.5L0.0,328.1L0.6,325.4L3.4,321.6L5.1,321.9L9.6,318.9L11.0,321.5L14.1,320.8L20.6,323.0L24.4,318.7L24.1,317.2L25.3,315.9L29.6,317.5L39.1,325.5L41.2,322.2L44.2,322.7L46.7,320.3Z"></path>
<path class="fhm-jud" data-slug="tulcea" data-name="Tulcea" d="M844.4,426.6L848.1,428.1L850.1,431.2L849.9,436.2L856.8,448.4L879.1,459.1L886.7,459.9L895.9,463.0L902.4,461.0L903.6,459.1L899.4,454.7L899.9,453.1L903.7,452.5L905.0,450.1L902.4,447.9L904.7,446.0L912.2,449.0L917.7,454.1L920.2,454.1L920.2,450.1L921.9,446.6L941.6,437.9L952.2,430.9L957.3,431.6L960.6,429.0L963.6,430.6L971.2,429.7L988.1,437.8L994.6,445.4L996.6,450.7L997.5,456.2L995.6,458.8L996.9,465.3L993.2,463.0L992.3,465.7L993.6,471.6L995.0,472.6L1000.0,472.1L997.0,476.3L994.6,483.0L990.9,517.9L989.5,521.5L984.5,523.9L953.7,527.8L938.6,532.7L931.2,538.5L924.9,545.9L918.3,543.2L907.1,553.2L903.3,552.7L902.2,549.8L892.1,550.5L890.9,549.8L892.1,547.6L882.3,549.9L876.1,548.8L875.6,553.1L869.4,550.8L869.4,549.2L867.2,548.5L867.4,546.8L865.8,546.8L864.9,549.6L866.9,550.1L865.7,555.6L863.5,556.2L863.4,554.0L860.6,552.1L859.6,548.2L860.5,545.8L858.4,544.2L853.0,543.5L854.3,541.8L852.8,541.1L848.7,543.3L844.2,541.1L845.5,539.3L845.1,533.0L840.3,534.6L838.9,533.6L838.9,529.9L835.9,527.6L831.9,528.7L827.5,527.1L830.1,518.9L834.8,513.9L833.2,511.8L832.9,509.0L835.6,501.7L833.3,495.1L835.8,491.4L834.0,482.1L837.9,481.9L838.6,480.7L837.6,478.8L840.5,475.9L829.4,468.2L833.4,461.8L832.0,457.9L828.7,459.1L821.6,456.1L819.1,453.5L819.7,450.1L823.8,433.8L831.1,429.9L839.0,434.2L840.1,433.7L840.5,428.3L844.4,426.6Z"></path>
<path class="fhm-jud" data-slug="valcea" data-name="Vâlcea" d="M450.2,407.7L450.2,410.0L453.1,415.5L450.3,419.3L451.8,421.5L451.4,424.7L450.5,426.1L447.3,426.7L446.6,430.5L449.4,438.8L448.2,439.4L448.9,441.9L447.7,442.6L447.0,446.6L448.0,449.2L446.8,451.1L447.9,454.9L446.6,456.3L447.1,458.0L445.4,461.9L445.9,464.9L448.5,465.5L447.5,467.3L450.2,468.4L450.2,471.9L448.8,473.1L450.8,476.2L450.1,480.7L448.0,480.3L449.5,484.3L446.8,487.9L450.1,488.8L450.7,490.9L447.0,495.1L449.5,497.1L446.8,500.9L446.6,502.7L448.8,505.5L445.0,510.2L444.9,511.8L446.7,512.5L444.9,518.2L442.2,520.7L440.0,519.2L440.8,513.9L437.2,512.2L434.8,516.7L431.1,517.8L432.0,519.5L429.6,521.6L429.4,528.8L427.3,532.0L424.9,532.4L425.8,535.3L425.5,541.7L430.2,556.1L430.3,564.1L426.3,563.3L425.6,557.8L423.3,558.1L423.2,565.9L416.8,565.1L415.4,566.4L412.3,564.4L408.3,567.6L404.0,574.8L398.6,568.8L394.7,567.5L388.2,568.8L387.5,563.7L386.4,561.4L385.0,562.0L383.3,555.9L385.1,554.2L380.9,554.3L376.4,550.9L373.4,552.4L372.6,533.8L371.5,530.9L374.2,525.1L370.4,512.7L371.4,511.2L370.9,508.6L371.7,504.9L370.1,496.5L374.1,493.6L372.8,487.5L377.7,485.8L376.4,481.6L377.1,479.5L376.0,478.3L380.5,474.2L378.8,467.7L376.5,465.6L374.2,457.4L379.5,447.3L373.8,443.8L362.6,447.3L358.8,443.9L356.5,446.1L353.6,444.9L351.9,440.8L353.4,439.7L352.6,433.0L351.0,432.6L353.2,425.2L355.1,427.6L357.7,427.7L361.4,426.0L364.4,421.5L371.6,419.4L373.6,416.7L380.8,415.6L381.8,417.1L387.6,415.5L397.0,416.1L404.6,419.1L414.1,418.8L417.4,417.4L420.1,413.8L423.1,414.4L430.2,409.3L441.8,408.5L443.1,407.1L446.4,408.5L446.8,409.9L450.2,407.7Z"></path>
<path class="fhm-jud" data-slug="vaslui" data-name="Vaslui" d="M831.8,217.1L831.8,219.5L833.8,222.5L837.3,224.4L836.9,226.2L838.6,227.6L838.0,230.3L839.4,234.3L841.0,234.8L844.7,243.5L846.3,250.1L845.2,254.6L843.3,256.5L844.4,258.9L842.6,262.6L844.0,264.8L841.9,267.7L843.3,268.3L847.0,274.7L847.1,279.7L844.1,281.6L845.5,284.5L840.7,288.5L841.2,290.4L839.5,295.1L841.6,296.4L835.8,302.3L834.3,301.7L833.7,305.8L831.5,309.3L831.1,312.1L833.0,313.2L834.9,317.5L832.8,322.3L833.9,325.1L832.0,328.4L830.8,327.0L827.7,326.9L820.6,328.8L820.7,327.2L818.0,327.9L815.8,323.3L813.3,324.2L811.9,321.6L810.2,321.4L806.1,322.6L805.8,320.2L803.4,320.6L803.3,325.5L796.7,330.3L794.5,325.3L782.6,323.4L778.4,324.0L776.4,321.9L775.3,322.8L776.6,325.6L776.0,327.8L780.2,335.4L777.3,336.2L776.8,340.6L777.8,341.8L775.9,343.6L773.3,343.8L771.2,341.9L768.3,336.2L770.1,334.6L768.5,331.8L770.5,330.4L767.0,323.5L765.1,322.6L766.7,319.7L767.4,311.3L764.5,311.2L763.5,304.0L764.9,301.9L762.8,299.6L762.1,295.9L764.1,294.4L761.3,283.8L758.2,279.1L752.7,263.5L748.5,255.6L743.0,249.5L747.6,245.2L744.7,241.7L748.3,238.4L739.1,232.7L738.8,230.9L736.1,228.8L735.6,227.5L738.5,226.4L736.3,224.5L737.2,218.1L735.7,216.8L737.0,215.5L734.2,212.4L735.2,210.3L737.7,212.5L749.4,212.5L755.9,208.6L756.3,211.3L758.7,213.4L770.2,210.4L768.8,205.4L771.6,205.4L773.4,209.8L777.2,210.4L778.1,208.7L780.7,208.2L781.3,205.7L778.9,203.3L779.1,200.0L778.0,198.9L779.5,193.7L781.3,195.9L783.6,196.4L787.2,202.0L788.5,201.5L790.5,204.6L791.4,204.2L795.1,211.0L797.6,211.6L795.4,200.2L799.6,199.5L800.0,210.7L798.2,213.7L801.6,214.7L802.0,213.2L803.5,212.9L805.6,214.4L805.9,216.8L809.9,221.9L814.2,217.2L813.6,214.5L817.5,214.1L818.6,217.0L821.2,217.8L825.3,215.0L831.8,217.1Z"></path>
<path class="fhm-jud" data-slug="vrancea" data-name="Vrancea" d="M766.0,320.5L765.1,322.6L767.0,323.5L765.0,323.5L764.7,325.6L761.2,325.5L758.9,323.6L758.0,324.9L759.1,330.7L752.9,331.6L752.8,332.8L745.1,331.9L743.6,333.3L742.2,338.5L738.4,338.4L737.7,344.4L738.9,351.5L743.9,362.1L740.4,362.7L740.1,364.2L742.4,364.0L743.4,366.6L744.5,366.1L751.5,382.1L752.2,386.6L757.1,393.9L758.8,395.2L761.1,394.0L763.5,400.2L766.6,400.4L768.2,402.9L768.6,407.0L770.0,409.0L767.8,409.3L767.1,411.4L769.3,412.9L769.3,418.0L772.9,422.8L760.3,434.0L759.2,435.3L759.7,437.1L756.2,439.7L755.4,438.8L749.4,440.6L749.7,438.7L742.3,437.7L741.7,433.0L743.4,432.0L743.3,427.9L737.4,432.0L735.4,428.2L734.3,428.1L732.2,431.9L728.9,434.6L725.9,434.8L726.4,433.0L724.8,432.2L726.5,429.0L730.5,426.3L725.3,424.8L723.3,429.2L718.8,428.3L713.9,422.3L710.7,415.7L703.2,415.7L703.1,417.4L701.6,418.5L698.1,417.1L696.0,418.2L693.1,413.7L687.0,413.5L685.8,410.2L684.1,410.1L678.3,404.0L676.4,404.4L672.9,401.5L670.6,402.6L670.3,400.6L667.2,401.5L663.9,399.5L660.0,394.0L658.9,390.3L657.2,389.8L657.2,387.5L654.0,384.5L654.5,379.0L649.3,374.9L647.5,371.8L647.4,366.5L648.8,364.1L647.5,358.9L649.6,356.9L649.0,351.6L654.1,346.5L653.5,344.8L655.0,341.8L654.4,338.8L656.1,339.6L659.8,337.9L662.4,340.7L668.4,342.2L669.9,338.6L672.2,337.9L678.5,331.2L682.4,330.4L691.0,331.3L693.3,334.8L700.7,332.3L706.6,334.9L708.6,331.7L708.8,328.7L712.7,327.6L721.6,331.5L724.6,331.2L725.0,327.6L726.6,329.3L728.5,324.8L727.4,323.7L727.6,321.9L732.6,317.3L735.0,317.4L737.2,315.6L738.7,315.9L739.1,317.6L742.3,316.9L741.6,314.3L746.1,313.5L747.4,313.9L749.1,319.1L750.8,319.1L750.8,321.5L753.5,320.7L753.9,315.9L755.4,315.2L761.2,316.7L762.4,320.8L764.7,319.5L766.0,320.5Z"></path>
<text class="fhm-lbl" x="347.5" y="342.6">AB</text>
<text class="fhm-lbl" x="172.6" y="299.9">AR</text>
<text class="fhm-lbl" x="485.8" y="497.9">AG</text>
<text class="fhm-lbl" x="683.4" y="280.2">BC</text>
<text class="fhm-lbl" x="203.7" y="194.1">BH</text>
<text class="fhm-lbl" x="449.6" y="165.3">BN</text>
<text class="fhm-lbl" x="687.8" y="62.5">BT</text>
<text class="fhm-lbl" x="517.9" y="377.6">BV</text>
<text class="fhm-lbl" x="784.7" y="479.6">BR</text>
<text class="fhm-lbl" x="617.6" y="582.8">B</text>
<text class="fhm-lbl" x="689.7" y="456.5">BZ</text>
<text class="fhm-lbl" x="728.0" y="602.2">CL</text>
<text class="fhm-lbl" x="190.7" y="476.9">CS</text>
<text class="fhm-lbl" x="365.5" y="209.9">CJ</text>
<text class="fhm-lbl" x="850.0" y="609.2">CT</text>
<text class="fhm-lbl" x="604.0" y="360.2">CV</text>
<text class="fhm-lbl" x="553.2" y="509.1">DB</text>
<text class="fhm-lbl" x="360.2" y="618.0">DJ</text>
<text class="fhm-lbl" x="793.0" y="379.9">GL</text>
<text class="fhm-lbl" x="613.3" y="631.3">GR</text>
<text class="fhm-lbl" x="324.3" y="503.0">GJ</text>
<text class="fhm-lbl" x="567.4" y="246.6">HR</text>
<text class="fhm-lbl" x="283.8" y="376.1">HD</text>
<text class="fhm-lbl" x="734.4" y="161.9">IS</text>
<text class="fhm-lbl" x="736.0" y="557.6">IL</text>
<text class="fhm-lbl" x="623.3" y="573.2">IF</text>
<text class="fhm-lbl" x="416.3" y="91.5">MM</text>
<text class="fhm-lbl" x="296.0" y="557.9">MH</text>
<text class="fhm-lbl" x="461.0" y="254.0">MS</text>
<text class="fhm-lbl" x="662.1" y="193.5">NT</text>
<text class="fhm-lbl" x="445.3" y="605.2">OT</text>
<text class="fhm-lbl" x="611.3" y="479.4">PH</text>
<text class="fhm-lbl" x="292.9" y="168.5">SJ</text>
<text class="fhm-lbl" x="266.5" y="83.1">SM</text>
<text class="fhm-lbl" x="421.5" y="361.8">SB</text>
<text class="fhm-lbl" x="591.0" y="112.2">SV</text>
<text class="fhm-lbl" x="522.8" y="638.1">TR</text>
<text class="fhm-lbl" x="144.4" y="392.0">TM</text>
<text class="fhm-lbl" x="914.6" y="487.2">TL</text>
<text class="fhm-lbl" x="411.7" y="492.3">VL</text>
<text class="fhm-lbl" x="800.3" y="271.5">VS</text>
<text class="fhm-lbl" x="700.6" y="376.9">VN</text>
</svg>
